<?xml version="1.0" encoding="UTF-8"?>
<svg version="1.1" xmlns="http://www.w3.org/2000/svg" width="500" height="500">
<path d="M0 0 C0.93457031 0.00322266 1.86914062 0.00644531 2.83203125 0.00976562 C3.80011719 0.01814453 4.76820313 0.02652344 5.765625 0.03515625 C6.74917969 0.03966797 7.73273438 0.04417969 8.74609375 0.04882812 C11.16929694 0.06059125 13.59246877 0.07852607 16.015625 0.09765625 C16.015625 4.71765625 16.015625 9.33765625 16.015625 14.09765625 C16.43279785 13.12481689 16.8499707 12.15197754 17.27978516 11.1496582 C18.83895235 8.8385965 19.64851987 8.18803315 22.38934326 7.51327515 C25.53554068 7.28385018 28.63443302 7.24024827 31.7890625 7.265625 C32.94556305 7.25751297 34.1020636 7.24940094 35.29360962 7.24104309 C37.73967901 7.23257922 40.18584241 7.23945621 42.63183594 7.26049805 C46.3709925 7.28502746 50.10495058 7.24045019 53.84375 7.18945312 C56.22135851 7.18982368 58.59897054 7.1942473 60.9765625 7.203125 C62.09235687 7.18581833 63.20815125 7.16851166 64.35775757 7.15068054 C69.38366362 7.24104221 73.08171872 7.3639233 76.76806641 11.02856445 C79.015625 15.09765625 79.015625 15.09765625 79.015625 25.09765625 C96.505625 25.09765625 113.995625 25.09765625 132.015625 25.09765625 C132.015625 28.06765625 132.015625 31.03765625 132.015625 34.09765625 C137.5752002 34.19984572 142.83721784 33.8610191 148.3359375 33.07421875 C149.92756465 32.8564758 151.51919904 32.63878572 153.11083984 32.42114258 C153.93203308 32.3068692 154.75322632 32.19259583 155.5993042 32.07485962 C170.37750153 30.02673925 185.12886887 28.14931858 200.015625 27.09765625 C201.23975098 27.00887207 202.46387695 26.92008789 203.72509766 26.82861328 C231.20543588 24.85519302 231.20543588 24.85519302 244.72509766 25.0703125 C251.18833957 25.16512054 257.55286427 24.69970267 263.98828125 24.12109375 C264.98730469 24.11335938 265.98632812 24.105625 267.015625 24.09765625 C267.675625 24.75765625 268.335625 25.41765625 269.015625 26.09765625 C259.84077885 27.90610162 250.69896095 29.49887139 241.41796875 30.66796875 C235.27536621 30.86908691 235.27536621 30.86908691 230.015625 33.09765625 C230.675625 33.42765625 231.335625 33.75765625 232.015625 34.09765625 C232.015625 35.08765625 232.015625 36.07765625 232.015625 37.09765625 C234.985625 36.76765625 237.955625 36.43765625 241.015625 36.09765625 C241.015625 36.75765625 241.015625 37.41765625 241.015625 38.09765625 C239.015625 39.09765625 239.015625 39.09765625 232.015625 39.09765625 C232.015625 43.71765625 232.015625 48.33765625 232.015625 53.09765625 C234.655625 53.09765625 237.295625 53.09765625 240.015625 53.09765625 C237.76302971 56.58917895 237.30988375 57.02409156 233.015625 58.09765625 C233.015625 70.30765625 233.015625 82.51765625 233.015625 95.09765625 C225.27399908 95.16652739 217.53343624 95.22626379 209.79174805 95.26245117 C207.15824786 95.27753682 204.52477279 95.29800791 201.89135742 95.32397461 C198.10589396 95.36036644 194.32076273 95.37738515 190.53515625 95.390625 C189.35790482 95.40610886 188.18065338 95.42159271 186.96772766 95.43754578 C185.31658211 95.43788567 185.31658211 95.43788567 183.63208008 95.43823242 C182.18313103 95.44822517 182.18313103 95.44822517 180.70491028 95.4584198 C177.53776302 95.03355179 175.62667646 93.89432885 173.015625 92.09765625 C172.8609375 93.92296875 172.8609375 93.92296875 172.703125 95.78515625 C171.99114928 101.16769267 170.43782846 103.89748456 166.23828125 107.44140625 C161.42222457 110.1111768 157.18765201 108.3979229 152.15820312 106.9609375 C150.97677734 106.59355469 149.79535156 106.22617187 148.578125 105.84765625 C146.76538086 105.31978516 146.76538086 105.31978516 144.91601562 104.78125 C141.94102624 103.911095 138.97597493 103.01615555 136.015625 102.09765625 C133.29325064 109.03971087 131.22752631 115.908977 129.015625 123.09765625 C119.445625 122.10765625 109.875625 121.11765625 100.015625 120.09765625 C100.345625 118.77765625 100.675625 117.45765625 101.015625 116.09765625 C99.90445313 116.10925781 98.79328125 116.12085938 97.6484375 116.1328125 C93.80863161 116.16477129 89.97101005 116.14084244 86.13134766 116.10107422 C84.37743311 116.09824075 82.62353872 116.15472314 80.87109375 116.2265625 C76.94186792 116.22052682 74.90237244 115.97208776 72.046875 113.15625 C68.84447291 108.50548879 67.81370754 105.52186679 68.46166992 99.90209961 C68.56227219 99.0022081 68.66287445 98.10231659 68.76652527 97.17515564 C68.84872818 96.48958084 68.93093109 95.80400604 69.015625 95.09765625 C33.26184822 93.85224411 33.26184822 93.85224411 -1.84033203 99.55419922 C-3.91500083 100.08007177 -5.91887547 100.38881794 -8.04296875 100.6328125 C-9.01363281 100.78621094 -9.98429687 100.93960938 -10.984375 101.09765625 C-11.314375 101.75765625 -11.644375 102.41765625 -11.984375 103.09765625 C-14.05078125 103.73046875 -14.05078125 103.73046875 -16.546875 104.22265625 C-17.37316406 104.39023437 -18.19945313 104.5578125 -19.05078125 104.73046875 C-20.00791016 104.91222656 -20.00791016 104.91222656 -20.984375 105.09765625 C-21.479375 104.10765625 -21.479375 104.10765625 -21.984375 103.09765625 C-22.87125 103.28328125 -23.758125 103.46890625 -24.671875 103.66015625 C-27.83616311 104.07808109 -29.93277142 103.90543367 -32.984375 103.09765625 C-33.108125 102.47890625 -33.231875 101.86015625 -33.359375 101.22265625 C-33.85634856 98.90644793 -33.85634856 98.90644793 -35.984375 97.09765625 C-34.499375 96.60265625 -34.499375 96.60265625 -32.984375 96.09765625 C-32.984375 95.43765625 -32.984375 94.77765625 -32.984375 94.09765625 C-30.38240298 93.09160032 -27.77808138 92.092631 -25.171875 91.09765625 C-24.43388672 90.81148438 -23.69589844 90.5253125 -22.93554688 90.23046875 C-21.86723633 89.82441406 -21.86723633 89.82441406 -20.77734375 89.41015625 C-20.1227417 89.15878906 -19.46813965 88.90742188 -18.79370117 88.6484375 C-16.984375 88.09765625 -16.984375 88.09765625 -13.984375 88.09765625 C-18.03647431 86.74695648 -20.75124444 88.10925673 -24.609375 89.47265625 C-25.30289063 89.70726562 -25.99640625 89.941875 -26.7109375 90.18359375 C-30.11305774 91.1697392 -30.11305774 91.1697392 -32.984375 93.09765625 C-38.51378676 93.33295037 -38.51378676 93.33295037 -40.984375 92.09765625 C-40.921875 90.28515625 -40.921875 90.28515625 -39.984375 88.09765625 C-36.4882847 86.28486869 -33.94455745 85.09765625 -29.984375 85.09765625 C-29.654375 84.10765625 -29.324375 83.11765625 -28.984375 82.09765625 C-28.324375 82.75765625 -27.664375 83.41765625 -26.984375 84.09765625 C-26.035625 83.74703125 -25.086875 83.39640625 -24.109375 83.03515625 C-20.984375 82.09765625 -20.984375 82.09765625 -18.984375 83.09765625 C-18.984375 82.10765625 -18.984375 81.11765625 -18.984375 80.09765625 C-16.014375 79.60265625 -16.014375 79.60265625 -12.984375 79.09765625 C-12.984375 78.10765625 -12.984375 77.11765625 -12.984375 76.09765625 C-14.27021484 76.54818359 -14.27021484 76.54818359 -15.58203125 77.0078125 C-26.9386808 80.78482672 -26.9386808 80.78482672 -32.984375 79.09765625 C-28.55557821 74.22597978 -24.31318794 73.73053754 -17.984375 73.09765625 C-17.984375 72.43765625 -17.984375 71.77765625 -17.984375 71.09765625 C-16.004375 70.10765625 -16.004375 70.10765625 -13.984375 69.09765625 C-13.654375 58.53765625 -13.324375 47.97765625 -12.984375 37.09765625 C-14.469375 37.59265625 -14.469375 37.59265625 -15.984375 38.09765625 C-17.85875649 35.02618704 -19.70518686 31.938821 -21.546875 28.84765625 C-22.07990234 27.97496094 -22.61292969 27.10226563 -23.16210938 26.203125 C-23.66162109 25.35878906 -24.16113281 24.51445312 -24.67578125 23.64453125 C-25.14185791 22.86948242 -25.60793457 22.09443359 -26.08813477 21.29589844 C-26.984375 19.09765625 -26.984375 19.09765625 -26.77197266 16.94995117 C-25.5208045 14.00741776 -23.29103285 12.60230075 -20.796875 10.66015625 C-19.30414063 9.48646484 -19.30414063 9.48646484 -17.78125 8.2890625 C-16.85828125 7.56589844 -15.9353125 6.84273437 -14.984375 6.09765625 C-13.83347854 5.10348756 -12.68631019 4.10494045 -11.546875 3.09765625 C-7.7638884 0.14508134 -4.71172015 -0.02873 0 0 Z M44.015625 33.09765625 C44.015625 39.69765625 44.015625 46.29765625 44.015625 53.09765625 C45.995625 52.76765625 47.975625 52.43765625 50.015625 52.09765625 C49.685625 51.10765625 49.355625 50.11765625 49.015625 49.09765625 C48.355625 48.76765625 47.695625 48.43765625 47.015625 48.09765625 C48.005625 47.76765625 48.995625 47.43765625 50.015625 47.09765625 C50.015625 42.47765625 50.015625 37.85765625 50.015625 33.09765625 C48.035625 33.09765625 46.055625 33.09765625 44.015625 33.09765625 Z M164.015625 39.09765625 C164.675625 39.75765625 165.335625 40.41765625 166.015625 41.09765625 C167.335625 41.09765625 168.655625 41.09765625 170.015625 41.09765625 C170.015625 40.43765625 170.015625 39.77765625 170.015625 39.09765625 C168.035625 39.09765625 166.055625 39.09765625 164.015625 39.09765625 Z M143.015625 72.09765625 C142.685625 74.40765625 142.355625 76.71765625 142.015625 79.09765625 C144.490625 79.59265625 144.490625 79.59265625 147.015625 80.09765625 C147.675625 77.12765625 148.335625 74.15765625 149.015625 71.09765625 C145.96292037 70.93954237 145.96292037 70.93954237 143.015625 72.09765625 Z M-8.984375 91.09765625 C-7.994375 91.59265625 -7.994375 91.59265625 -6.984375 92.09765625 C-4.62455687 91.1618663 -2.28806236 90.16417817 0.015625 89.09765625 C-3.89941064 87.50264173 -5.64920876 88.78156858 -8.984375 91.09765625 Z M96.015625 90.09765625 C96.015625 90.75765625 96.015625 91.41765625 96.015625 92.09765625 C98.325625 92.09765625 100.635625 92.09765625 103.015625 92.09765625 C103.015625 91.43765625 103.015625 90.77765625 103.015625 90.09765625 C100.705625 90.09765625 98.395625 90.09765625 96.015625 90.09765625 Z " fill="#0A0E03" transform="translate(135.984375,183.90234375)"/>
<path d="M0 0 C0.99 0.99 0.99 0.99 2 2 C-7.17484615 3.80844537 -16.31666405 5.40121514 -25.59765625 6.5703125 C-31.74025879 6.77143066 -31.74025879 6.77143066 -37 9 C-36.01 9.495 -36.01 9.495 -35 10 C-35 10.99 -35 11.98 -35 13 C-30.545 12.505 -30.545 12.505 -26 12 C-26 12.66 -26 13.32 -26 14 C-28 15 -28 15 -35 15 C-35 19.62 -35 24.24 -35 29 C-32.36 29 -29.72 29 -27 29 C-29.25259529 32.4915227 -29.70574125 32.92643531 -34 34 C-34 46.21 -34 58.42 -34 71 C-41.74162592 71.06887114 -49.48218876 71.12860754 -57.22387695 71.16479492 C-59.85737714 71.17988057 -62.49085221 71.20035166 -65.12426758 71.22631836 C-68.90973104 71.26271019 -72.69486227 71.2797289 -76.48046875 71.29296875 C-77.65772018 71.30845261 -78.83497162 71.32393646 -80.04789734 71.33988953 C-81.69904289 71.34022942 -81.69904289 71.34022942 -83.38354492 71.34057617 C-84.83249397 71.35056892 -84.83249397 71.35056892 -86.31071472 71.36076355 C-89.47786198 70.93589554 -91.38894854 69.7966726 -94 68 C-94.103125 69.216875 -94.20625 70.43375 -94.3125 71.6875 C-95.02447572 77.07003642 -96.57779654 79.79982831 -100.77734375 83.34375 C-105.59340043 86.01352055 -109.82797299 84.30026665 -114.85742188 82.86328125 C-116.03884766 82.49589844 -117.22027344 82.12851562 -118.4375 81.75 C-120.25024414 81.22212891 -120.25024414 81.22212891 -122.09960938 80.68359375 C-125.07459876 79.81343875 -128.03965007 78.9184993 -131 78 C-133.72237436 84.94205462 -135.78809869 91.81132075 -138 99 C-147.57 98.01 -157.14 97.02 -167 96 C-166.67 94.68 -166.34 93.36 -166 92 C-167.11117187 92.01160156 -168.22234375 92.02320313 -169.3671875 92.03515625 C-177.32301396 92.09238598 -185.09199699 92.00419086 -193 91 C-193.33 89.68 -193.66 88.36 -194 87 C-193.34330322 87.144375 -192.68660645 87.28875 -192.01000977 87.4375 C-182.60079239 89.27453388 -173.47077836 89.16509543 -163.9375 89 C-160.80079643 88.94676571 -157.66432791 88.90692492 -154.52734375 88.875 C-153.81488998 88.85840332 -153.10243622 88.84180664 -152.36839294 88.82470703 C-148.66125924 88.7876986 -147.17572783 88.88284811 -144 91 C-150.27 91 -156.54 91 -163 91 C-163.33 91.99 -163.66 92.98 -164 94 C-159.05 94.33 -154.1 94.66 -149 95 C-149 95.66 -149 96.32 -149 97 C-148.071875 96.690625 -147.14375 96.38125 -146.1875 96.0625 C-144.125 95.375 -142.0625 94.6875 -140 94 C-139.855625 92.865625 -139.71125 91.73125 -139.5625 90.5625 C-139 87 -139 87 -138 86 C-138.99 85.505 -138.99 85.505 -140 85 C-139.67 59.26 -139.34 33.52 -139 7 C-138.01 7.33 -137.02 7.66 -136 8 C-136.495 4.535 -136.495 4.535 -137 1 C-136.34 1 -135.68 1 -135 1 C-135 3.97 -135 6.94 -135 10 C-129.4404248 10.10218947 -124.17840716 9.76336285 -118.6796875 8.9765625 C-117.08806035 8.75881955 -115.49642596 8.54112947 -113.90478516 8.32348633 C-113.08359192 8.20921295 -112.26239868 8.09493958 -111.4163208 7.97720337 C-96.63812347 5.929083 -81.88675613 4.05166233 -67 3 C-65.77587402 2.91121582 -64.55174805 2.82243164 -63.29052734 2.73095703 C-34.926478 0.69395135 -34.926478 0.69395135 -21.83129883 0.98583984 C-14.47480839 1.13707982 -7.354924 -0.3804271 0 0 Z M-103 15 C-102.34 15.66 -101.68 16.32 -101 17 C-99.68 17 -98.36 17 -97 17 C-97 16.34 -97 15.68 -97 15 C-98.98 15 -100.96 15 -103 15 Z M-124 48 C-124.33 50.31 -124.66 52.62 -125 55 C-122.525 55.495 -122.525 55.495 -120 56 C-119.34 53.03 -118.68 50.06 -118 47 C-121.05270463 46.84188612 -121.05270463 46.84188612 -124 48 Z " fill="#0C0E05" transform="translate(403,208)"/>
<path d="M0 0 C2.31570608 0.07568788 4.62801571 0.10246429 6.94482422 0.12036133 C8.41492217 0.14294082 9.88498147 0.16823534 11.35498047 0.1965332 C12.3940152 0.21398842 12.3940152 0.21398842 13.45404053 0.23179626 C18.32236828 0.40220226 18.32236828 0.40220226 20.55810547 2.63793945 C21.21810547 1.97793945 21.87810547 1.31793945 22.55810547 0.63793945 C25.37841797 0.44262695 25.37841797 0.44262695 28.68310547 0.51293945 C29.77880859 0.53098633 30.87451172 0.5490332 32.00341797 0.56762695 C33.26798828 0.60243164 33.26798828 0.60243164 34.55810547 0.63793945 C34.6739928 10.721399 34.76281747 20.80469995 34.81716633 30.88868999 C34.84325223 35.57121502 34.87863158 40.2532842 34.93530273 44.93554688 C34.98965891 49.45486234 35.01953359 53.97373956 35.03249168 58.4933567 C35.04172514 60.21697704 35.05975636 61.94057359 35.08675575 63.66400719 C35.12309575 66.07991594 35.12804901 68.49401784 35.12573242 70.91015625 C35.1437088 71.62153748 35.16168518 72.3329187 35.1802063 73.06585693 C35.1409682 76.85177259 34.63449616 78.53788207 32.31231689 81.57949829 C29.48063501 83.69583929 28.37538885 84.26967547 24.9230957 84.30078125 C23.59162758 84.32926399 23.59162758 84.32926399 22.23326111 84.35832214 C21.28729568 84.35133804 20.34133026 84.34435394 19.36669922 84.3371582 C18.38443863 84.34431351 17.40217804 84.35146881 16.39015198 84.35884094 C14.31829739 84.36660995 12.2463608 84.3616228 10.17456055 84.34472656 C7.00201579 84.32547835 3.83383798 84.36491788 0.66162109 84.40942383 C-1.35335547 84.40971414 -3.36833607 84.4065753 -5.38330078 84.3996582 C-6.33129044 84.41494064 -7.27928009 84.43022308 -8.2559967 84.44596863 C-10.79173277 84.40100083 -12.99298089 84.29824494 -15.44189453 83.63793945 C-19.21285906 79.51888045 -19.95776235 76.46349365 -19.81689453 70.95043945 C-19.80400391 69.83282227 -19.79111328 68.71520508 -19.77783203 67.5637207 C-19.44189453 64.63793945 -19.44189453 64.63793945 -17.44189453 61.63793945 C-14.49125305 61.41708305 -11.75821223 61.35732956 -8.81689453 61.45043945 C-7.61419922 61.47074219 -7.61419922 61.47074219 -6.38720703 61.49145508 C-4.40515075 61.52684894 -2.42343902 61.58065712 -0.44189453 61.63793945 C-0.11189453 63.61793945 0.21810547 65.59793945 0.55810547 67.63793945 C5.17810547 67.63793945 9.79810547 67.63793945 14.55810547 67.63793945 C14.55810547 64.33793945 14.55810547 61.03793945 14.55810547 57.63793945 C13.47013672 57.71012695 12.38216797 57.78231445 11.26123047 57.85668945 C7.43308792 58.10392002 3.60387462 58.31862689 -0.22705078 58.51782227 C-2.17454612 58.6234404 -4.12087562 58.75011276 -6.06689453 58.88012695 C-10.58614448 59.07219508 -13.55994618 59.08756018 -17.62939453 57.01293945 C-22.23243349 48.44176346 -20.73375962 35.03227062 -20.84692383 25.29443359 C-20.8687691 23.88565967 -20.90317398 22.47703036 -20.94946289 21.06884766 C-21.3755381 7.87567893 -21.3755381 7.87567893 -18.46142578 3.20043945 C-13.65871796 -1.19866753 -6.10485893 -0.2005341 0 0 Z " fill="#BFFB73" transform="translate(228.44189453125,212.362060546875)"/>
<path d="M0 0 C0.96787949 -0.01260864 1.93575897 -0.02521729 2.93296814 -0.03820801 C4.49864281 -0.02606262 4.49864281 -0.02606262 6.09594727 -0.01367188 C7.16982193 -0.01749878 8.24369659 -0.02132568 9.35011292 -0.02526855 C11.62225277 -0.02799177 13.89442376 -0.0206021 16.16650391 -0.00390625 C19.64564982 0.01747547 23.12272562 -0.00368461 26.60180664 -0.02929688 C28.80819141 -0.02665326 31.01457489 -0.0215276 33.22094727 -0.01367188 C34.26270615 -0.0217688 35.30446503 -0.02986572 36.37779236 -0.03820801 C43.56598979 0.05512923 43.56598979 0.05512923 46.875 2.37768555 C48.62818128 5.15696461 48.82460653 7.05217847 48.84985352 10.33007812 C48.90012695 11.82474609 48.90012695 11.82474609 48.95141602 13.34960938 C48.16357772 16.78475377 47.6417003 17.23909843 45.21313477 19.54492188 C40.5268321 24.61478852 41.5438724 30.74825555 41.78735352 37.26757812 C41.814021 38.55204834 41.84068848 39.83651855 41.86816406 41.15991211 C41.95658715 44.9474074 42.08783144 48.73157646 42.22485352 52.51757812 C42.27322777 54.5136361 42.32025981 56.50972742 42.36547852 58.50585938 C42.41921993 60.19738215 42.47622524 61.88880619 42.53735352 63.58007812 C42.57034546 64.71944824 42.57034546 64.71944824 42.60400391 65.88183594 C42.81640593 69.98542396 43.32416736 72.52357231 46.22485352 75.51757812 C45.56485352 76.83757812 44.90485352 78.15757812 44.22485352 79.51757812 C37.78374749 79.61920521 31.34284912 79.68913865 24.90112305 79.73730469 C22.71094028 79.75738919 20.52081093 79.78466229 18.33081055 79.81933594 C15.17816976 79.86799222 12.02623948 79.8905789 8.87329102 79.90820312 C7.89806488 79.92884827 6.92283875 79.94949341 5.9180603 79.97076416 C4.9975589 79.97106628 4.0770575 79.97136841 3.12866211 79.97167969 C2.32480072 79.98056213 1.52093933 79.98944458 0.69271851 79.99859619 C-2.93683841 79.29114969 -5.00347805 77.94957215 -7.77514648 75.51757812 C-8.51686096 72.36804199 -8.51686096 72.36804199 -8.50390625 68.609375 C-8.50960129 67.92271255 -8.51529633 67.23605011 -8.52116394 66.52857971 C-8.53226004 64.26344298 -8.50022934 62.00120721 -8.46655273 59.73632812 C-8.46297496 58.15979349 -8.46161835 56.58325238 -8.46238708 55.00671387 C-8.45769735 51.70442597 -8.43287192 48.40311606 -8.39257812 45.10107422 C-8.34160671 40.87065058 -8.33013529 36.64130113 -8.33241367 32.41060638 C-8.33159742 29.15571864 -8.31513584 25.90106523 -8.29340935 22.64625549 C-8.28387048 21.08657097 -8.27795206 19.52685993 -8.27572823 17.96714783 C-8.26921393 15.78623353 -8.24293587 13.60645158 -8.2109375 11.42578125 C-8.19950211 10.18542114 -8.18806671 8.94506104 -8.17628479 7.66711426 C-7.47005592 2.12216052 -5.59289861 0.02089654 0 0 Z M17.22485352 21.51757812 C17.22485352 28.11757812 17.22485352 34.71757812 17.22485352 41.51757812 C19.20485352 41.18757813 21.18485352 40.85757813 23.22485352 40.51757812 C22.89485352 39.52757812 22.56485352 38.53757812 22.22485352 37.51757812 C21.56485352 37.18757813 20.90485352 36.85757813 20.22485352 36.51757812 C21.21485352 36.18757813 22.20485352 35.85757813 23.22485352 35.51757812 C23.22485352 30.89757812 23.22485352 26.27757812 23.22485352 21.51757812 C21.24485352 21.51757812 19.26485352 21.51757812 17.22485352 21.51757812 Z " fill="#7ED857" transform="translate(162.775146484375,195.482421875)"/>
<path d="M0 0 C1.46983337 0.00630684 1.46983337 0.00630684 2.96936035 0.01274109 C5.03726266 0.02917768 7.10508968 0.06483605 9.17236328 0.1184082 C12.33331969 0.19895297 15.49045594 0.22085699 18.65234375 0.23242188 C20.66410512 0.25568149 22.6758314 0.28226295 24.6875 0.3125 C25.63032837 0.32211258 26.57315674 0.33172516 27.54455566 0.34162903 C36.46693337 0.59984154 36.46693337 0.59984154 39.84375 3.88671875 C40.54858398 6.74243164 40.54858398 6.74243164 40.65234375 10.296875 C40.67654892 10.94866226 40.70075409 11.60044952 40.72569275 12.27198792 C40.79597584 14.47735483 40.82387273 16.68034208 40.84375 18.88671875 C40.85448547 19.68003601 40.86522095 20.47335327 40.87628174 21.29071045 C40.95016001 27.302388 40.93567934 33.31230375 40.90625 39.32421875 C40.90121935 41.13476437 40.89665924 42.94531136 40.89257812 44.75585938 C40.88170937 49.13284721 40.86453325 53.50976723 40.84375 57.88671875 C36.22375 57.88671875 31.60375 57.88671875 26.84375 57.88671875 C26.51375 56.89671875 26.18375 55.90671875 25.84375 54.88671875 C25.18375 54.88671875 24.52375 54.88671875 23.84375 54.88671875 C23.51375 55.87671875 23.18375 56.86671875 22.84375 57.88671875 C18.39641701 58.01087123 13.9500174 58.10131332 9.50146484 58.16137695 C7.99021826 58.1864297 6.47909176 58.22048252 4.96826172 58.26391602 C2.78843499 58.32498565 0.61021738 58.35301791 -1.5703125 58.375 C-3.53411865 58.41427612 -3.53411865 58.41427612 -5.53759766 58.4543457 C-10.30563952 57.70642388 -11.85432683 56.35585973 -15.15625 52.88671875 C-15.65025096 50.02213457 -15.78870307 48.07949403 -15.59375 45.26171875 C-15.56490723 44.55821289 -15.53606445 43.85470703 -15.50634766 43.12988281 C-15.44268627 41.71252827 -15.36540723 40.29571395 -15.27392578 38.87988281 C-15.16888204 37.10067725 -15.13978822 35.31736195 -15.12109375 33.53515625 C-15.09144531 32.57867187 -15.06179688 31.6221875 -15.03125 30.63671875 C-15.00804687 29.8065625 -14.98484375 28.97640625 -14.9609375 28.12109375 C-14.00312043 25.46152403 -12.79410855 24.0796129 -10.36279297 22.62792969 C-5.09312376 20.85776862 0.73347329 21.49367242 6.21875 21.63671875 C7.52714844 21.65476563 8.83554687 21.6728125 10.18359375 21.69140625 C13.40439689 21.73842527 16.62369474 21.80413694 19.84375 21.88671875 C19.84375 19.57671875 19.84375 17.26671875 19.84375 14.88671875 C14.89375 14.88671875 9.94375 14.88671875 4.84375 14.88671875 C4.51375 15.87671875 4.18375 16.86671875 3.84375 17.88671875 C-2.09625 17.55671875 -8.03625 17.22671875 -14.15625 16.88671875 C-15.35996899 7.25696685 -15.35996899 7.25696685 -11.9309082 2.44638062 C-8.44181766 -0.6200135 -4.43300869 -0.14988986 0 0 Z " fill="#7DD756" transform="translate(324.15625,217.11328125)"/>
<path d="M0 0 C2.31 0.33 4.62 0.66 7 1 C7.66 1.99 8.32 2.98 9 4 C9.53463867 3.80994385 10.06927734 3.6198877 10.62011719 3.42407227 C13.74097586 2.86796522 15.99922349 3.47530368 19.078125 4.21484375 C20.81835938 4.62573242 20.81835938 4.62573242 22.59375 5.04492188 C23.8003125 5.33947266 25.006875 5.63402344 26.25 5.9375 C27.47203125 6.22818359 28.6940625 6.51886719 29.953125 6.81835938 C32.970805 7.53741594 35.98619115 8.26491695 39 9 C39.12246094 9.96164063 39.24492187 10.92328125 39.37109375 11.9140625 C39.64576118 15.11365555 39.64576118 15.11365555 42.0625 16.375 C43.0215625 16.684375 43.0215625 16.684375 44 17 C42.35 17.66 40.7 18.32 39 19 C39.01571045 20.01312256 39.0314209 21.02624512 39.04760742 22.07006836 C39.10233595 25.86637265 39.13650442 29.66264282 39.16479492 33.45922852 C39.17978456 35.09535609 39.20018332 36.73144415 39.22631836 38.36743164 C39.53767786 58.37380587 39.53767786 58.37380587 34.375 65.125 C27.87206145 67.52081946 19.58165628 64.24774091 13.1875 62.4375 C11.53644393 61.97326038 9.88413416 61.5134512 8.23046875 61.05859375 C7.51270264 60.85548584 6.79493652 60.65237793 6.05541992 60.44311523 C3.69874583 59.85950523 3.69874583 59.85950523 0 60 C0 40.2 0 20.4 0 0 Z M12 34 C11.67 36.31 11.34 38.62 11 41 C13.475 41.495 13.475 41.495 16 42 C16.66 39.03 17.32 36.06 18 33 C14.94729537 32.84188612 14.94729537 32.84188612 12 34 Z " fill="#BFFA73" transform="translate(267,222)"/>
<path d="M0 0 C0.02584822 7.10855307 0.04306976 14.21709359 0.05493164 21.32568359 C0.05988872 23.73226372 0.06665635 26.13884095 0.07543945 28.54541016 C0.13291121 44.72539898 -0.16569211 60.84041926 -1 77 C-5.66487638 78.49417226 -9.48993394 79.23618126 -14.4375 79.125 C-15.48808594 79.10695313 -16.53867188 79.08890625 -17.62109375 79.0703125 C-18.40613281 79.04710937 -19.19117187 79.02390625 -20 79 C-20.20638953 41.13545992 -20.20638953 41.13545992 -19 25 C-19.78375 25.495 -20.5675 25.99 -21.375 26.5 C-24 28 -24 28 -26 28 C-27.76171875 25.515625 -27.76171875 25.515625 -29.6875 22.25 C-30.33074219 21.18265625 -30.97398438 20.1153125 -31.63671875 19.015625 C-33.11455567 15.74659893 -33.18933076 15.20072194 -32 12 C-30.08136505 9.71068596 -28.23115824 7.77117981 -26.0625 5.75 C-25.55009766 5.19570312 -25.03769531 4.64140625 -24.50976562 4.0703125 C-17.76688576 -2.13038789 -8.53390531 -0.47211022 0 0 Z " fill="#7ED557" transform="translate(147,188)"/>
<path d="M0 0 C0.66 0 1.32 0 2 0 C2 5.33333333 2 10.66666667 2 16 C3.29073309 18.58146618 4.34708747 18.94208096 7 20 C9.25985816 20.28638738 9.25985816 20.28638738 11.67675781 20.22705078 C13.05773651 20.22682419 13.05773651 20.22682419 14.46661377 20.22659302 C15.45216248 20.21627045 16.43771118 20.20594788 17.453125 20.1953125 C18.46848328 20.1924826 19.48384155 20.18965271 20.52996826 20.18673706 C23.77009916 20.17555001 27.00995276 20.15044791 30.25 20.125 C32.44791267 20.1149683 34.64582968 20.10584278 36.84375 20.09765625 C42.22926114 20.07561551 47.61461076 20.04215251 53 20 C53 20.33 53 20.66 53 21 C46.73 21.33 40.46 21.66 34 22 C34 22.33 34 22.66 34 23 C33.31301025 22.97381592 32.62602051 22.94763184 31.91821289 22.9206543 C15.46368652 22.38194415 0.49672142 23.64265648 -15.51757812 27.45654297 C-17.73058477 27.94101905 -19.89236449 28.2755221 -22.140625 28.53515625 C-23.08421875 28.68855469 -24.0278125 28.84195312 -25 29 C-25.33 29.66 -25.66 30.32 -26 31 C-28.06640625 31.6328125 -28.06640625 31.6328125 -30.5625 32.125 C-31.80193359 32.37636719 -31.80193359 32.37636719 -33.06640625 32.6328125 C-34.02353516 32.81457031 -34.02353516 32.81457031 -35 33 C-35.33 32.34 -35.66 31.68 -36 31 C-36.886875 31.185625 -37.77375 31.37125 -38.6875 31.5625 C-41.85178811 31.98042484 -43.94839642 31.80777742 -47 31 C-47.12375 30.38125 -47.2475 29.7625 -47.375 29.125 C-47.87197356 26.80879168 -47.87197356 26.80879168 -50 25 C-49.01 24.67 -48.02 24.34 -47 24 C-47 23.34 -47 22.68 -47 22 C-44.39802798 20.99394407 -41.79370638 19.99497475 -39.1875 19 C-38.44951172 18.71382813 -37.71152344 18.42765625 -36.95117188 18.1328125 C-36.23896484 17.86210937 -35.52675781 17.59140625 -34.79296875 17.3125 C-34.1383667 17.06113281 -33.48376465 16.80976563 -32.80932617 16.55078125 C-31 16 -31 16 -28 16 C-32.05209931 14.64930023 -34.76686944 16.01160048 -38.625 17.375 C-39.31851563 17.60960937 -40.01203125 17.84421875 -40.7265625 18.0859375 C-44.12868274 19.07208295 -44.12868274 19.07208295 -47 21 C-52.52941176 21.23529412 -52.52941176 21.23529412 -55 20 C-54.9375 18.1875 -54.9375 18.1875 -54 16 C-50.5039097 14.18721244 -47.96018245 13 -44 13 C-43.67 12.01 -43.34 11.02 -43 10 C-42.34 10.66 -41.68 11.32 -41 12 C-40.05125 11.649375 -39.1025 11.29875 -38.125 10.9375 C-35 10 -35 10 -33 11 C-33 10.01 -33 9.02 -33 8 C-31.02 7.67 -29.04 7.34 -27 7 C-26.67 9.64 -26.34 12.28 -26 15 C-24.88625 14.83628906 -23.7725 14.67257812 -22.625 14.50390625 C-17.74020485 13.89330686 -12.91604855 13.88841503 -8 13.9375 C-7.12988281 13.94201172 -6.25976562 13.94652344 -5.36328125 13.95117188 C-3.24215707 13.9628264 -1.1210689 13.98075643 1 14 C1 13.34 1 12.68 1 12 C0.34 11.67 -0.32 11.34 -1 11 C-1 7.25838897 -0.48661829 3.71046443 0 0 Z M-23 19 C-22.01 19.495 -22.01 19.495 -21 20 C-18.64018187 19.06421005 -16.30368736 18.06652192 -14 17 C-17.91503564 15.40498548 -19.66483376 16.68391233 -23 19 Z " fill="#010101" transform="translate(150,256)"/>
<path d="M0 0 C0.93457031 0.00322266 1.86914062 0.00644531 2.83203125 0.00976562 C3.80011719 0.01814453 4.76820313 0.02652344 5.765625 0.03515625 C6.74917969 0.03966797 7.73273438 0.04417969 8.74609375 0.04882812 C11.16933291 0.06059142 13.59244773 0.07702941 16.015625 0.09765625 C16.10156862 4.65803934 16.02387752 7.95563543 14.015625 12.09765625 C13.685625 12.09765625 13.355625 12.09765625 13.015625 12.09765625 C12.685625 18.69765625 12.355625 25.29765625 12.015625 32.09765625 C11.685625 32.09765625 11.355625 32.09765625 11.015625 32.09765625 C11.015625 22.85765625 11.015625 13.61765625 11.015625 4.09765625 C-2.4581357 3.49443736 -2.4581357 3.49443736 -13.421875 10.03515625 C-14.95941842 11.70744526 -16.48343919 13.39243428 -17.984375 15.09765625 C-18.974375 15.75765625 -19.964375 16.41765625 -20.984375 17.09765625 C-20.55795174 21.64617101 -18.53503384 24.63591525 -16.04296875 28.328125 C-14.984375 30.09765625 -14.984375 30.09765625 -14.984375 32.09765625 C-14.200625 31.60265625 -13.416875 31.10765625 -12.609375 30.59765625 C-9.984375 29.09765625 -9.984375 29.09765625 -7.984375 29.09765625 C-7.76796184 47.10804067 -8.42096614 65.09875544 -8.984375 83.09765625 C-0.074375 82.10765625 -0.074375 82.10765625 9.015625 81.09765625 C9.345625 73.17765625 9.675625 65.25765625 10.015625 57.09765625 C10.345625 57.09765625 10.675625 57.09765625 11.015625 57.09765625 C11.015625 62.04765625 11.015625 66.99765625 11.015625 72.09765625 C12.995625 71.60265625 12.995625 71.60265625 15.015625 71.09765625 C15.345625 67.79765625 15.675625 64.49765625 16.015625 61.09765625 C16.345625 61.09765625 16.675625 61.09765625 17.015625 61.09765625 C17.015625 64.39765625 17.015625 67.69765625 17.015625 71.09765625 C16.025625 71.42765625 15.035625 71.75765625 14.015625 72.09765625 C14.015625 73.35578125 14.015625 74.61390625 14.015625 75.91015625 C14.015625 78.30598958 14.015625 80.70182292 14.015625 83.09765625 C14.345625 84.08765625 14.675625 85.07765625 15.015625 86.09765625 C13.365625 86.09765625 11.715625 86.09765625 10.015625 86.09765625 C9.685625 86.75765625 9.355625 87.41765625 9.015625 88.09765625 C9.015625 87.43765625 9.015625 86.77765625 9.015625 86.09765625 C-1.379375 87.08765625 -1.379375 87.08765625 -11.984375 88.09765625 C-14.234375 80.22265625 -14.234375 80.22265625 -12.984375 76.09765625 C-14.27021484 76.54818359 -14.27021484 76.54818359 -15.58203125 77.0078125 C-26.9386808 80.78482672 -26.9386808 80.78482672 -32.984375 79.09765625 C-28.55557821 74.22597978 -24.31318794 73.73053754 -17.984375 73.09765625 C-17.984375 72.43765625 -17.984375 71.77765625 -17.984375 71.09765625 C-16.004375 70.10765625 -16.004375 70.10765625 -13.984375 69.09765625 C-13.654375 58.53765625 -13.324375 47.97765625 -12.984375 37.09765625 C-14.469375 37.59265625 -14.469375 37.59265625 -15.984375 38.09765625 C-17.85875649 35.02618704 -19.70518686 31.938821 -21.546875 28.84765625 C-22.07990234 27.97496094 -22.61292969 27.10226563 -23.16210938 26.203125 C-23.66162109 25.35878906 -24.16113281 24.51445312 -24.67578125 23.64453125 C-25.14185791 22.86948242 -25.60793457 22.09443359 -26.08813477 21.29589844 C-26.984375 19.09765625 -26.984375 19.09765625 -26.77197266 16.94995117 C-25.5208045 14.00741776 -23.29103285 12.60230075 -20.796875 10.66015625 C-19.80171875 9.87769531 -18.8065625 9.09523437 -17.78125 8.2890625 C-16.85828125 7.56589844 -15.9353125 6.84273437 -14.984375 6.09765625 C-13.83347854 5.10348756 -12.68631019 4.10494045 -11.546875 3.09765625 C-7.7638884 0.14508134 -4.71172015 -0.02873 0 0 Z " fill="#0B0F05" transform="translate(135.984375,183.90234375)"/>
<path d="M0 0 C0.99 0.99 0.99 0.99 2 2 C-8.30400138 4.0310121 -18.56878411 5.74250555 -29 7 C-29.92683594 7.12503906 -30.85367188 7.25007812 -31.80859375 7.37890625 C-35.74184907 7.86366003 -39.33468611 8.04477546 -43.26953125 7.53125 C-49.9062789 6.81686295 -56.54007839 6.81393954 -63.20654297 6.81469727 C-65.39179197 6.81248298 -67.57655675 6.79418194 -69.76171875 6.77539062 C-71.16145663 6.77246071 -72.56119687 6.77047323 -73.9609375 6.76953125 C-75.21696777 6.76542236 -76.47299805 6.76131348 -77.76708984 6.75708008 C-80.86633933 6.98995678 -82.35911349 7.51207876 -85 9 C-88.25 9.125 -88.25 9.125 -91 9 C-91 9.66 -91 10.32 -91 11 C-93.75 13 -93.75 13 -97 15 C-97.99 15.61875 -97.99 15.61875 -99 16.25 C-101.73901253 17.2771297 -104.1038991 17.19307339 -107 17 C-107.33 16.67 -107.66 16.34 -108 16 C-111.46050175 15.75249391 -114.92027118 15.61565966 -118.38671875 15.4765625 C-122.17697302 14.97665869 -124.70591346 13.89245525 -128 12 C-127.67 11.34 -127.34 10.68 -127 10 C-124.43803534 9.4846457 -121.95192046 9.09861778 -119.36328125 8.78125 C-118.58112747 8.67843216 -117.79897369 8.57561432 -116.99311829 8.46968079 C-114.43407876 8.13651635 -111.87352231 7.81753683 -109.3125 7.5 C-107.54798877 7.27583582 -105.78350313 7.05147011 -104.01904297 6.8269043 C-91.69909245 5.27365495 -79.38850152 3.87517524 -67 3 C-65.77587402 2.91121582 -64.55174805 2.82243164 -63.29052734 2.73095703 C-34.926478 0.69395135 -34.926478 0.69395135 -21.83129883 0.98583984 C-14.47480839 1.13707982 -7.354924 -0.3804271 0 0 Z " fill="#020202" transform="translate(403,208)"/>
<path d="M0 0 C4.62 0 9.24 0 14 0 C14 15.18 14 30.36 14 46 C6 46 6 46 0 45 C0 30.15 0 15.3 0 0 Z M4 4 C4 10.6 4 17.2 4 24 C5.98 23.67 7.96 23.34 10 23 C9.67 22.01 9.34 21.02 9 20 C8.34 19.67 7.68 19.34 7 19 C7.99 18.67 8.98 18.34 10 18 C10 13.38 10 8.76 10 4 C8.02 4 6.04 4 4 4 Z " fill="#0F0A0A" transform="translate(176,213)"/>
<path d="M0 0 C0.96787949 -0.01260864 1.93575897 -0.02521729 2.93296814 -0.03820801 C4.49864281 -0.02606262 4.49864281 -0.02606262 6.09594727 -0.01367188 C7.16982193 -0.01749878 8.24369659 -0.02132568 9.35011292 -0.02526855 C11.62225277 -0.02799177 13.89442376 -0.0206021 16.16650391 -0.00390625 C19.64564982 0.01747547 23.12272562 -0.00368461 26.60180664 -0.02929688 C28.80819141 -0.02665326 31.01457489 -0.0215276 33.22094727 -0.01367188 C34.26270615 -0.0217688 35.30446503 -0.02986572 36.37779236 -0.03820801 C43.56733767 0.05514673 43.56733767 0.05514673 46.87280273 2.37988281 C49.63479776 6.74680741 49.19059449 11.59419275 48.22485352 16.51757812 C46.68671794 18.99457568 45.07270499 20.80848291 42.95141602 22.79882812 C41.15169175 24.59040884 40.22993647 26.20284163 39.22485352 28.51757812 C39.14258683 25.47371088 39.24877134 23.44582464 40.22485352 20.51757812 C41.21485352 19.85757813 42.20485352 19.19757813 43.22485352 18.51757812 C45.64977832 14.178239 45.53247713 10.36265013 45.22485352 5.51757812 C44.27219601 3.32431758 44.27219601 3.32431758 43.22485352 1.51757812 C36.71010294 1.60970684 30.19573011 1.71699319 23.68139648 1.83496094 C21.46400661 1.87330947 19.24655328 1.90815184 17.02905273 1.93945312 C13.84669263 1.98497638 10.6647717 2.04299132 7.48266602 2.10351562 C6.48679474 2.11506683 5.49092346 2.12661804 4.46487427 2.13851929 C3.54407074 2.15838898 2.62326721 2.17825867 1.67456055 2.19873047 C0.45544479 2.21871597 0.45544479 2.21871597 -0.78829956 2.23910522 C-3.00554706 2.34656893 -3.00554706 2.34656893 -4.77514648 4.51757812 C-5.10835224 7.59400938 -5.10835224 7.59400938 -5.09399414 11.26220703 C-5.10403976 11.95500259 -5.11408539 12.64779816 -5.12443542 13.36158752 C-5.15537202 15.6557633 -5.17233124 17.94982185 -5.18920898 20.24414062 C-5.20791225 21.83313005 -5.22748503 23.42210946 -5.24789429 25.01107788 C-5.29931058 29.1965953 -5.33888525 33.38214496 -5.3760376 37.56781006 C-5.41601791 41.83760616 -5.46713741 46.10726707 -5.51733398 50.37695312 C-5.61420563 58.75706925 -5.6985742 67.13725206 -5.77514648 75.51757812 C-5.15393417 75.67114777 -4.53272186 75.82471741 -3.89268494 75.98294067 C-2.5534557 76.32107012 -1.21945443 76.68133523 0.10546875 77.07177734 C2.81601778 77.64192623 5.36508436 77.64738707 8.13500977 77.65039062 C9.2906543 77.65167969 10.44629883 77.65296875 11.63696289 77.65429688 C13.44390625 77.64849609 13.44390625 77.64849609 15.28735352 77.64257812 C17.05369141 77.64837891 17.05369141 77.64837891 18.85571289 77.65429688 C31.37396967 78.57422842 31.37396967 78.57422842 42.22485352 74.51757812 C41.23485352 74.02257812 41.23485352 74.02257812 40.22485352 73.51757812 C40.22485352 59.32757813 40.22485352 45.13757813 40.22485352 30.51757812 C40.55485352 30.51757812 40.88485352 30.51757812 41.22485352 30.51757812 C41.29216675 32.3491748 41.29216675 32.3491748 41.36083984 34.21777344 C41.53116873 38.75079884 41.72006019 43.28289367 41.91455078 47.81494141 C41.99611293 49.77600033 42.072649 51.73727504 42.14404297 53.69873047 C42.24758192 56.51927443 42.36921427 59.33854654 42.49438477 62.15820312 C42.52264847 63.03438293 42.55091217 63.91056274 42.58003235 64.81329346 C42.83950203 70.74696122 42.83950203 70.74696122 46.22485352 75.51757812 C45.56485352 76.83757812 44.90485352 78.15757812 44.22485352 79.51757812 C37.78374749 79.61920521 31.34284912 79.68913865 24.90112305 79.73730469 C22.71094028 79.75738919 20.52081093 79.78466229 18.33081055 79.81933594 C15.17816976 79.86799222 12.02623948 79.8905789 8.87329102 79.90820312 C7.89806488 79.92884827 6.92283875 79.94949341 5.9180603 79.97076416 C4.9975589 79.97106628 4.0770575 79.97136841 3.12866211 79.97167969 C2.32480072 79.98056213 1.52093933 79.98944458 0.69271851 79.99859619 C-2.93683841 79.29114969 -5.00347805 77.94957215 -7.77514648 75.51757812 C-8.51686096 72.36804199 -8.51686096 72.36804199 -8.50390625 68.609375 C-8.50960129 67.92271255 -8.51529633 67.23605011 -8.52116394 66.52857971 C-8.53226004 64.26344298 -8.50022934 62.00120721 -8.46655273 59.73632812 C-8.46297496 58.15979349 -8.46161835 56.58325238 -8.46238708 55.00671387 C-8.45769735 51.70442597 -8.43287192 48.40311606 -8.39257812 45.10107422 C-8.34160671 40.87065058 -8.33013529 36.64130113 -8.33241367 32.41060638 C-8.33159742 29.15571864 -8.31513584 25.90106523 -8.29340935 22.64625549 C-8.28387048 21.08657097 -8.27795206 19.52685993 -8.27572823 17.96714783 C-8.26921393 15.78623353 -8.24293587 13.60645158 -8.2109375 11.42578125 C-8.19950211 10.18542114 -8.18806671 8.94506104 -8.17628479 7.66711426 C-7.47005592 2.12216052 -5.59289861 0.02089654 0 0 Z " fill="#78B15B" transform="translate(162.775146484375,195.482421875)"/>
<path d="M0 0 C0.33 1.32 0.66 2.64 1 4 C6.94 4 12.88 4 19 4 C19.33 3.34 19.66 2.68 20 2 C24.95 2 29.9 2 35 2 C35 4.31 35 6.62 35 9 C34.17798096 9.01458252 33.35596191 9.02916504 32.5090332 9.04418945 C28.77638677 9.11876333 25.04462541 9.21539512 21.3125 9.3125 C20.01892578 9.33505859 18.72535156 9.35761719 17.39257812 9.38085938 C16.14541016 9.41630859 14.89824219 9.45175781 13.61328125 9.48828125 C12.46641846 9.51446533 11.31955566 9.54064941 10.13793945 9.56762695 C6.59488411 10.05582045 4.70973615 10.65551062 2 13 C1.1286052 15.87857852 1.1286052 15.87857852 1.07421875 19.19921875 C1.00009766 20.40771484 0.92597656 21.61621094 0.84960938 22.86132812 C0.79611328 24.12396484 0.74261719 25.38660156 0.6875 26.6875 C0.61466797 27.96173828 0.54183594 29.23597656 0.46679688 30.54882812 C0.2898375 33.69870497 0.13516743 36.84809806 0 40 C-0.33 40 -0.66 40 -1 40 C-1.66 37.36 -2.32 34.72 -3 32 C-3.33 32 -3.66 32 -4 32 C-3.9193749 28.54069307 -3.80651536 25.08318225 -3.6875 21.625 C-3.66494141 20.64015625 -3.64238281 19.6553125 -3.61914062 18.640625 C-3.58369141 17.69960937 -3.54824219 16.75859375 -3.51171875 15.7890625 C-3.47244263 14.48509521 -3.47244263 14.48509521 -3.43237305 13.15478516 C-3 11 -3 11 0 9 C-0.99 8.34 -1.98 7.68 -3 7 C-2.67 6.01 -2.34 5.02 -2 4 C-1.34 4.33 -0.68 4.66 0 5 C0 3.35 0 1.7 0 0 Z " fill="#222F13" transform="translate(309,230)"/>
<path d="M0 0 C-0.08378906 0.63808594 -0.16757813 1.27617187 -0.25390625 1.93359375 C-0.35574219 2.75988281 -0.45757812 3.58617187 -0.5625 4.4375 C-0.66691406 5.26121094 -0.77132812 6.08492188 -0.87890625 6.93359375 C-0.91886719 7.61550781 -0.95882812 8.29742187 -1 9 C-0.505 9.495 -0.505 9.495 0 10 C0 8.35 0 6.7 0 5 C0.33 5 0.66 5 1 5 C1.05607422 5.90492188 1.05607422 5.90492188 1.11328125 6.828125 C1.49324802 11.4473289 1.75179373 14.46934101 5 18 C5 18.66 5 19.32 5 20 C11.31761758 19.95832577 17.63435456 19.88599515 23.95141602 19.79248047 C26.09977261 19.76427873 28.24823281 19.74306025 30.39672852 19.72900391 C33.48768119 19.70756377 36.57738922 19.66090689 39.66796875 19.609375 C40.62648239 19.60814636 41.58499603 19.60691772 42.57255554 19.60565186 C46.99601917 19.50879545 49.35522294 19.41774148 53.14575195 16.96191406 C53.75765381 16.31448242 54.36955566 15.66705078 55 15 C55 15.66 55 16.32 55 17 C56.485 17.495 56.485 17.495 58 18 C57.34 18.33 56.68 18.66 56 19 C56 21.64 56 24.28 56 27 C52.38026598 28.31626692 49.90432869 29 46 29 C46 28.34 46 27.68 46 27 C45.41992188 27.01160156 44.83984375 27.02320313 44.2421875 27.03515625 C39.7001754 27.08762174 35.47286431 26.91751063 31 26 C31.33 24.68 31.66 23.36 32 22 C31.15405273 22.00785522 31.15405273 22.00785522 30.29101562 22.01586914 C27.69402211 22.03687267 25.09704656 22.04973362 22.5 22.0625 C21.613125 22.07087891 20.72625 22.07925781 19.8125 22.08789062 C4.18169602 22.14535682 4.18169602 22.14535682 -1 18 C-3.27118162 15.50170022 -4.04041722 13.9184495 -3.89111328 10.52563477 C-3.78524902 9.63158936 -3.67938477 8.73754395 -3.5703125 7.81640625 C-3.46734863 6.9147876 -3.36438477 6.01316895 -3.25830078 5.08422852 C-3.17306152 4.39643311 -3.08782227 3.7086377 -3 3 C-3.589021 3.00523682 -4.17804199 3.01047363 -4.78491211 3.01586914 C-7.50243017 3.03689803 -10.21993101 3.04974146 -12.9375 3.0625 C-14.32678711 3.07506836 -14.32678711 3.07506836 -15.74414062 3.08789062 C-21.58300303 3.10837786 -27.20913053 2.75429787 -33 2 C-33 1.67 -33 1.34 -33 1 C-28.43755286 0.83186513 -23.87503444 0.66574745 -19.3125 0.5 C-18.01892578 0.45230469 -16.72535156 0.40460938 -15.39257812 0.35546875 C-13.52182617 0.28779297 -13.52182617 0.28779297 -11.61328125 0.21875 C-9.89298706 0.1559082 -9.89298706 0.1559082 -8.13793945 0.09179688 C-5.42259389 0.01236251 -2.71620292 -0.01779658 0 0 Z " fill="#0C0D06" transform="translate(208,276)"/>
<path d="M0 0 C4.62 0 9.24 0 14 0 C14 7.26 14 14.52 14 22 C9.38 22 4.76 22 0 22 C0 14.74 0 7.48 0 0 Z " fill="#0D0D07" transform="translate(228,231)"/>
<path d="M0 0 C1.61783713 0.00503291 3.23567581 0.0095926 4.85351562 0.01367188 C8.75654967 0.02451754 12.65950695 0.04167977 16.5625 0.0625 C17.24957555 2.55314888 17.5625 4.44136292 17.5625 7.0625 C16.9025 7.0625 16.2425 7.0625 15.5625 7.0625 C15.2325 31.8125 14.9025 56.5625 14.5625 82.0625 C14.2325 82.0625 13.9025 82.0625 13.5625 82.0625 C13.5625 56.3225 13.5625 30.5825 13.5625 4.0625 C2.63351925 3.99915831 2.63351925 3.99915831 -1.4375 7.0625 C-1.9325 5.5775 -1.9325 5.5775 -2.4375 4.0625 C-13.3275 4.0625 -24.2175 4.0625 -35.4375 4.0625 C-35.4375 3.4025 -35.4375 2.7425 -35.4375 2.0625 C-26.25262802 -2.52993599 -10.14261686 -0.05579229 0 0 Z " fill="#273314" transform="translate(249.4375,208.9375)"/>
<path d="M0 0 C3.96 1.32 7.92 2.64 12 4 C10.85487933 11.57541365 9.41314069 18.72840273 7 26 C5.20793453 25.85915204 3.41635083 25.71216299 1.625 25.5625 C0.62726563 25.48128906 -0.37046875 25.40007812 -1.3984375 25.31640625 C-4 25 -4 25 -6 24 C-4.73806629 15.71440891 -2.57280399 7.97569236 0 0 Z M0 14 C-0.33 16.31 -0.66 18.62 -1 21 C1.475 21.495 1.475 21.495 4 22 C4.66 19.03 5.32 16.06 6 13 C2.94729537 12.84188612 2.94729537 12.84188612 0 14 Z " fill="#0F1407" transform="translate(279,242)"/>
<path d="M0 0 C2.97 0 5.94 0 9 0 C9 0.33 9 0.66 9 1 C7.35 1.33 5.7 1.66 4 2 C3.67 8.6 3.34 15.2 3 22 C4.32 21.67 5.64 21.34 7 21 C7.99 21.66 8.98 22.32 10 23 C10.1875 26.125 10.1875 26.125 10 29 C9.34 29.33 8.68 29.66 8 30 C8.33 30.33 8.66 30.66 9 31 C9.07179964 32.51928038 9.08392007 34.04167482 9.0625 35.5625 C9.05347656 36.38878906 9.04445312 37.21507812 9.03515625 38.06640625 C9.02355469 38.70449219 9.01195312 39.34257812 9 40 C6.69 40 4.38 40 2 40 C2 40.66 2 41.32 2 42 C4.64 42 7.28 42 10 42 C10 42.33 10 42.66 10 43 C6.7 43 3.4 43 0 43 C0 28.81 0 14.62 0 0 Z " fill="#030401" transform="translate(177,215)"/>
<path d="M0 0 C2.31 0.33 4.62 0.66 7 1 C7.66 1.99 8.32 2.98 9 4 C9.53109375 3.80535156 10.0621875 3.61070312 10.609375 3.41015625 C13.80915926 2.86117366 16.1298534 3.58963408 19.25 4.4375 C20.32765625 4.72496094 21.4053125 5.01242188 22.515625 5.30859375 C23.74539063 5.65083984 23.74539063 5.65083984 25 6 C25 6.33 25 6.66 25 7 C22.03 7 19.06 7 16 7 C16 7.66 16 8.32 16 9 C14.35 9.33 12.7 9.66 11 10 C10.7525 9.360625 10.505 8.72125 10.25 8.0625 C9.18437567 5.81258459 9.18437567 5.81258459 6.875 5.25 C6.25625 5.1675 5.6375 5.085 5 5 C5 4.34 5 3.68 5 3 C4.01 3 3.02 3 2 3 C2.33 20.82 2.66 38.64 3 57 C2.34 57 1.68 57 1 57 C0.67 57.99 0.34 58.98 0 60 C0 40.2 0 20.4 0 0 Z " fill="#BCE682" transform="translate(267,222)"/>
<path d="M0 0 C0.92515915 0.01131958 1.8503183 0.02263916 2.80351257 0.03430176 C5.75004788 0.07898466 8.69166262 0.17932332 11.63671875 0.28125 C13.63729935 0.32138785 15.63795648 0.3578881 17.63867188 0.390625 C22.5357416 0.47869294 27.42914697 0.61667786 32.32421875 0.78125 C32.32421875 1.11125 32.32421875 1.44125 32.32421875 1.78125 C19.12421875 1.78125 5.92421875 1.78125 -7.67578125 1.78125 C-7.34578125 2.77125 -7.01578125 3.76125 -6.67578125 4.78125 C-5.68578125 4.78125 -4.69578125 4.78125 -3.67578125 4.78125 C-3.67578125 5.44125 -3.67578125 6.10125 -3.67578125 6.78125 C-4.33578125 6.78125 -4.99578125 6.78125 -5.67578125 6.78125 C-5.49015625 7.52375 -5.30453125 8.26625 -5.11328125 9.03125 C-4.67578125 11.78125 -4.67578125 11.78125 -5.67578125 15.78125 C-2.37578125 15.78125 0.92421875 15.78125 4.32421875 15.78125 C4.32421875 14.79125 4.32421875 13.80125 4.32421875 12.78125 C4.98421875 13.11125 5.64421875 13.44125 6.32421875 13.78125 C5.66421875 15.10125 5.00421875 16.42125 4.32421875 17.78125 C-1.61578125 17.45125 -7.55578125 17.12125 -13.67578125 16.78125 C-14.87551829 7.18335365 -14.87551829 7.18335365 -11.42129517 2.33422852 C-8.05177467 -0.6636238 -4.29985769 -0.19883959 0 0 Z " fill="#82D060" transform="translate(323.67578125,217.21875)"/>
<path d="M0 0 C1.53266582 3.06533164 1.10276471 6.26754272 1.0625 9.625 C1.05798828 10.33140625 1.05347656 11.0378125 1.04882812 11.765625 C1.03703875 13.51045275 1.01910324 15.255237 1 17 C1.33 12.38 1.66 7.76 2 3 C2.33 3 2.66 3 3 3 C3.14574303 7.14010989 3.28795587 11.28032347 3.42724609 15.4206543 C3.47483754 16.82172721 3.52330459 18.22277072 3.57275391 19.6237793 C3.74148178 24.41530663 3.88524501 29.20686966 4 34 C4.01772461 34.71097839 4.03544922 35.42195679 4.05371094 36.15447998 C4.1000692 38.23711289 4.13083871 40.31936075 4.15625 42.40234375 C4.17494141 43.62300537 4.19363281 44.84366699 4.21289062 46.10131836 C4 49 4 49 2 51 C-0.88853527 48.11146473 -0.47073322 45.07647668 -0.625 41.1875 C-0.66222168 40.37812988 -0.69944336 39.56875977 -0.73779297 38.73486328 C-1.06198699 30.61806081 -1.10402099 22.49737447 -1.125 14.375 C-1.12967285 13.0758667 -1.1343457 11.7767334 -1.13916016 10.43823242 C-1.13706543 9.2288501 -1.1349707 8.01946777 -1.1328125 6.7734375 C-1.13168457 5.68466309 -1.13055664 4.59588867 -1.12939453 3.47412109 C-1 1 -1 1 0 0 Z " fill="#1A2809" transform="translate(205,218)"/>
<path d="M0 0 C4.95 0 9.9 0 15 0 C15 2.31 15 4.62 15 7 C5.76 7 -3.48 7 -13 7 C-13 5 -13 5 -11 3 C-8.4036808 2.61984012 -5.8337665 2.49404686 -3.21484375 2.34375 C-2.11849609 2.17359375 -2.11849609 2.17359375 -1 2 C-0.67 1.34 -0.34 0.68 0 0 Z " fill="#061300" transform="translate(329,232)"/>
<path d="M0 0 C4.62 0 9.24 0 14 0 C14 15.18 14 30.36 14 46 C11.36 46 8.72 46 6 46 C6 45.67 6 45.34 6 45 C8.97 44.505 8.97 44.505 12 44 C12 31.46 12 18.92 12 6 C11.34 6 10.68 6 10 6 C10 5.34 10 4.68 10 4 C9.2575 4.04125 8.515 4.0825 7.75 4.125 C5 4 5 4 1 2 C1 16.19 1 30.38 1 45 C0.67 45 0.34 45 0 45 C0 30.15 0 15.3 0 0 Z " fill="#162D0B" transform="translate(176,213)"/>
<path d="M0 0 C2.29013653 3.4352048 2.17842973 4.985331 2 9 C3.175625 9.433125 3.175625 9.433125 4.375 9.875 C7 11 7 11 9 13 C11.43744897 13.17488254 13.7593608 13.23177405 16.1953125 13.1953125 C17.25647781 13.19106766 17.25647781 13.19106766 18.33908081 13.18673706 C20.6012251 13.17553137 22.86297515 13.15042679 25.125 13.125 C26.65754637 13.11497067 28.19009894 13.10584474 29.72265625 13.09765625 C33.48192301 13.07559086 37.24089464 13.04105896 41 13 C41.33 12.34 41.66 11.68 42 11 C42.66 11 43.32 11 44 11 C44.495 11.99 44.495 11.99 45 13 C48.04581269 13.46954261 48.04581269 13.46954261 51.5625 13.625 C52.76003906 13.69976562 53.95757812 13.77453125 55.19140625 13.8515625 C56.11824219 13.90054687 57.04507813 13.94953125 58 14 C58 14.33 58 14.66 58 15 C46.5327684 16.13796955 35.1264589 16.0001788 23.625 15.6875 C22.87864288 15.67034943 22.13228577 15.65319885 21.36331177 15.63552856 C19.21309906 15.58405137 17.06375406 15.51889634 14.9140625 15.44921875 C13.0261499 15.39254028 13.0261499 15.39254028 11.10009766 15.3347168 C8 15 8 15 5 13 C4.01 13 3.02 13 2 13 C1.34 15.31 0.68 17.62 0 20 C-0.66 19.67 -1.32 19.34 -2 19 C-1.835 17.88625 -1.67 16.7725 -1.5 15.625 C-0.9554273 11.39699809 -0.95852362 7.26043918 -1.0625 3.00390625 C-1 1 -1 1 0 0 Z " fill="#081D02" transform="translate(306,261)"/>
<path d="M0 0 C2.475 0.99 2.475 0.99 5 2 C5.99950502 13.82841513 6.12057652 25.57345384 6.0625 37.4375 C6.05746935 39.24804562 6.05290924 41.05859261 6.04882812 42.86914062 C6.03795937 47.24612846 6.02078325 51.62304848 6 56 C1.38 56 -3.24 56 -8 56 C-8 55.34 -8 54.68 -8 54 C-4.04 54 -0.08 54 4 54 C3.67 37.17 3.34 20.34 3 3 C2.01 2.67 1.02 2.34 0 2 C0 1.34 0 0.68 0 0 Z " fill="#77B25A" transform="translate(359,219)"/>
<path d="M0 0 C2.97 0 5.94 0 9 0 C9 0.33 9 0.66 9 1 C7.35 1.33 5.7 1.66 4 2 C3.67 8.6 3.34 15.2 3 22 C3.66 22.33 4.32 22.66 5 23 C4.34 23 3.68 23 3 23 C3 25.31 3 27.62 3 30 C3.99 30 4.98 30 6 30 C6 30.66 6 31.32 6 32 C5.01 32 4.02 32 3 32 C2.34 34.31 1.68 36.62 1 39 C0.67 39 0.34 39 0 39 C0 26.13 0 13.26 0 0 Z " fill="#0C0B05" transform="translate(177,215)"/>
<path d="M0 0 C0.33 0 0.66 0 1 0 C1 2.64 1 5.28 1 8 C-2.61973402 9.31626692 -5.09567131 10 -9 10 C-9 9.34 -9 8.68 -9 8 C-9.58007812 8.01160156 -10.16015625 8.02320313 -10.7578125 8.03515625 C-15.2998246 8.08762174 -19.52713569 7.91751063 -24 7 C-23.67 5.68 -23.34 4.36 -23 3 C-22.40985107 3.01571045 -21.81970215 3.0314209 -21.21166992 3.04760742 C-18.53704414 3.10997939 -15.86257136 3.14899657 -13.1875 3.1875 C-11.7943457 3.22520508 -11.7943457 3.22520508 -10.37304688 3.26367188 C-9.48037109 3.27333984 -8.58769531 3.28300781 -7.66796875 3.29296875 C-6.84578857 3.3086792 -6.0236084 3.32438965 -5.17651367 3.34057617 C-2.5135644 2.92388361 -1.71975796 2.00522787 0 0 Z " fill="#1B240C" transform="translate(263,295)"/>
<path d="M0 0 C0.33 0 0.66 0 1 0 C1.04487549 1.22106445 1.08975098 2.44212891 1.13598633 3.70019531 C1.30631521 8.23322072 1.49520668 12.76531554 1.68969727 17.29736328 C1.77125942 19.25842221 1.84779548 21.21969692 1.91918945 23.18115234 C2.02272841 26.00169631 2.14436075 28.82096842 2.26953125 31.640625 C2.29779495 32.51680481 2.32605865 33.39298462 2.35517883 34.29571533 C2.61464852 40.2293831 2.61464852 40.2293831 6 45 C5.34 46.32 4.68 47.64 4 49 C-0.95 49 -5.9 49 -11 49 C-11 48.34 -11 47.68 -11 47 C-10.22914063 46.95101562 -9.45828125 46.90203125 -8.6640625 46.8515625 C-7.66117188 46.77679688 -6.65828125 46.70203125 -5.625 46.625 C-4.62726563 46.55539062 -3.62953125 46.48578125 -2.6015625 46.4140625 C0.15508879 46.23636036 0.15508879 46.23636036 2 44 C1.34 43.67 0.68 43.34 0 43 C0 28.81 0 14.62 0 0 Z " fill="#82C462" transform="translate(203,226)"/>
<path d="M0 0 C4.62 0 9.24 0 14 0 C14 2.64 14 5.28 14 8 C9.38 8 4.76 8 0 8 C0 5.36 0 2.72 0 0 Z " fill="#2A2622" transform="translate(330,251)"/>
<path d="M0 0 C6.6 0 13.2 0 20 0 C20 7.875 20 7.875 18 12 C17.67 12 17.34 12 17 12 C16.67 18.6 16.34 25.2 16 32 C15.67 32 15.34 32 15 32 C14.67 22.43 14.34 12.86 14 3 C9.05 3 4.1 3 -1 3 C-0.67 2.01 -0.34 1.02 0 0 Z " fill="#151C0C" transform="translate(132,184)"/>
<path d="M0 0 C2.31 0 4.62 0 7 0 C7.76118977 10.60591086 7.76118977 10.60591086 5.95703125 13.91015625 C4.625 15.25 4.625 15.25 2 17 C1.34 17 0.68 17 0 17 C0 11.39 0 5.78 0 0 Z " fill="#020102" transform="translate(232,234)"/>
<path d="M0 0 C3.00927734 -0.35644531 3.00927734 -0.35644531 6.8359375 -0.328125 C7.5116983 -0.32625183 8.18745911 -0.32437866 8.88369751 -0.32244873 C10.31444219 -0.3157228 11.74516831 -0.3017974 13.17578125 -0.28125 C15.35955006 -0.25021954 17.5425955 -0.24029094 19.7265625 -0.234375 C31.30206559 -0.15799766 31.30206559 -0.15799766 35 1 C34.67 1.99 34.34 2.98 34 4 C22.12 3.67 10.24 3.34 -2 3 C-1.34 2.01 -0.68 1.02 0 0 Z " fill="#0C0C04" transform="translate(329,214)"/>
<path d="M0 0 C0.99 0 1.98 0 3 0 C3 0.99 3 1.98 3 3 C8.28 3 13.56 3 19 3 C19 3.33 19 3.66 19 4 C10.585 4.495 10.585 4.495 2 5 C1.67 6.32 1.34 7.64 1 9 C0.175 9.78375 -0.65 10.5675 -1.5 11.375 C-5.24102802 15.50192203 -4.65663244 20.75774968 -4.76171875 26.05078125 C-4.84035156 27.02402344 -4.91898438 27.99726563 -5 29 C-5.66 29.33 -6.32 29.66 -7 30 C-7.74777448 12.69732938 -7.74777448 12.69732938 -3 7 C-2.01 6.34 -1.02 5.68 0 5 C0.25030977 2.41619823 0.25030977 2.41619823 0 0 Z " fill="#15170D" transform="translate(212,206)"/>
<path d="M0 0 C0.66 0.33 1.32 0.66 2 1 C1.67 2.65 1.34 4.3 1 6 C0.34 6 -0.32 6 -1 6 C-1 6.66 -1 7.32 -1 8 C-7.35352676 10.03358813 -12.42706544 11.60671734 -19 10 C-14.57120321 5.12832353 -10.32881294 4.63288129 -4 4 C-4 3.34 -4 2.68 -4 2 C-2.125 0.9375 -2.125 0.9375 0 0 Z " fill="#010101" transform="translate(122,253)"/>
<path d="M0 0 C1.26108078 0.0001133 1.26108078 0.0001133 2.54763794 0.00022888 C3.91020218 0.00797081 3.91020218 0.00797081 5.30029297 0.01586914 C6.22969696 0.01728409 7.15910095 0.01869904 8.1166687 0.02015686 C11.09197171 0.02576486 14.06720011 0.03831871 17.04248047 0.05102539 C19.0568023 0.05603936 21.07112531 0.06060245 23.08544922 0.06469727 C28.02948849 0.07573689 32.97347182 0.0930069 37.91748047 0.11352539 C37.91748047 0.44352539 37.91748047 0.77352539 37.91748047 1.11352539 C31.64748047 1.44352539 25.37748047 1.77352539 18.91748047 2.11352539 C18.91748047 2.44352539 18.91748047 2.77352539 18.91748047 3.11352539 C10.99748047 3.11352539 3.07748047 3.11352539 -5.08251953 3.11352539 C-5.41251953 2.45352539 -5.74251953 1.79352539 -6.08251953 1.11352539 C-3.79620459 -0.02963208 -2.53904547 -0.00760193 0 0 Z " fill="#080A02" transform="translate(165.08251953125,275.886474609375)"/>
<path d="M0 0 C0.99 0.33 1.98 0.66 3 1 C5.51368055 1.0846817 7.99869374 1.11601885 10.51171875 1.09765625 C11.23994339 1.0962413 11.96816803 1.09482635 12.71846008 1.09336853 C15.04151539 1.08777659 17.36447388 1.07522562 19.6875 1.0625 C21.26367048 1.05748396 22.83984248 1.05292123 24.41601562 1.04882812 C28.27738098 1.0378098 32.13867408 1.02055074 36 1 C35.67 1.99 35.34 2.98 35 4 C30.49770526 4.09889302 25.99604273 4.17147709 21.49291992 4.21972656 C19.96123238 4.2398398 18.42962161 4.2671345 16.89819336 4.30175781 C14.69625927 4.35029315 12.49534018 4.37296996 10.29296875 4.390625 C9.60849167 4.41127014 8.92401459 4.43191528 8.21879578 4.45318604 C6.27807617 4.45410156 6.27807617 4.45410156 3 4 C1.04418945 1.97558594 1.04418945 1.97558594 0 0 Z " fill="#82C263" transform="translate(312,271)"/>
<path d="M0 0 C0.66 0 1.32 0 2 0 C2 2.31 2 4.62 2 7 C-1.3183077 8.98960773 -3.79959699 9.2361745 -7.640625 9.1953125 C-8.71054687 9.18886719 -9.78046875 9.18242187 -10.8828125 9.17578125 C-11.99398438 9.15902344 -13.10515625 9.14226562 -14.25 9.125 C-15.37664062 9.11597656 -16.50328125 9.10695312 -17.6640625 9.09765625 C-20.44292365 9.07410658 -23.2213539 9.0412168 -26 9 C-26 9.66 -26 10.32 -26 11 C-26.66 10.67 -27.32 10.34 -28 10 C-28 9.01 -28 8.02 -28 7 C-18.76 7 -9.52 7 0 7 C0 4.69 0 2.38 0 0 Z " fill="#78B85A" transform="translate(344,232)"/>
<path d="M0 0 C3 1 3 1 4 3 C4.53109375 2.80535156 5.0621875 2.61070312 5.609375 2.41015625 C8.80915926 1.86117366 11.1298534 2.58963408 14.25 3.4375 C15.86648438 3.86869141 15.86648438 3.86869141 17.515625 4.30859375 C18.74539063 4.65083984 18.74539063 4.65083984 20 5 C20 5.33 20 5.66 20 6 C17.03 6 14.06 6 11 6 C11 6.66 11 7.32 11 8 C9.35 8.33 7.7 8.66 6 9 C5.62875 8.0409375 5.62875 8.0409375 5.25 7.0625 C4.18437567 4.81258459 4.18437567 4.81258459 1.875 4.25 C1.25625 4.1675 0.6375 4.085 0 4 C0 2.68 0 1.36 0 0 Z " fill="#BBED79" transform="translate(272,223)"/>
<path d="M0 0 C10.89 0 21.78 0 33 0 C33.495 1.485 33.495 1.485 34 3 C22.78 3 11.56 3 0 3 C0 2.01 0 1.02 0 0 Z " fill="#B3DC78" transform="translate(214,213)"/>
<path d="M0 0 C0.33 0 0.66 0 1 0 C1 4.95 1 9.9 1 15 C2.32 14.67 3.64 14.34 5 14 C5.33 10.7 5.66 7.4 6 4 C6.33 4 6.66 4 7 4 C7 7.3 7 10.6 7 14 C6.01 14.33 5.02 14.66 4 15 C4.04125 16.27875 4.0825 17.5575 4.125 18.875 C4.1953125 21.0546875 4.1953125 21.0546875 4 23 C3.34 23.66 2.68 24.32 2 25 C1.01 24.67 0.02 24.34 -1 24 C-0.67 16.08 -0.34 8.16 0 0 Z " fill="#1B2110" transform="translate(146,241)"/>
<path d="M0 0 C0.66 0 1.32 0 2 0 C2 8.25 2 16.5 2 25 C1.67 25 1.34 25 1 25 C0.34 22.36 -0.32 19.72 -1 17 C-1.33 17 -1.66 17 -2 17 C-1.85978195 14.35375716 -1.71310224 11.70815422 -1.5625 9.0625 C-1.52318359 8.30775391 -1.48386719 7.55300781 -1.44335938 6.77539062 C-1.11328125 1.11328125 -1.11328125 1.11328125 0 0 Z " fill="#162909" transform="translate(307,245)"/>
<path d="M0 0 C2.31 0.66 4.62 1.32 7 2 C7.33 3.32 7.66 4.64 8 6 C4.535 7.485 4.535 7.485 1 9 C1.33 9.99 1.66 10.98 2 12 C0.35 11.67 -1.3 11.34 -3 11 C-2.69078116 9.54096742 -2.37751201 8.08279278 -2.0625 6.625 C-1.88847656 5.81289062 -1.71445312 5.00078125 -1.53515625 4.1640625 C-1 2 -1 2 0 0 Z " fill="#1B2015" transform="translate(279,242)"/>
<path d="M0 0 C1.5 1.375 1.5 1.375 3 3 C3 3.66 3 4.32 3 5 C3.78375 4.505 4.5675 4.01 5.375 3.5 C8 2 8 2 10 2 C10 8.27 10 14.54 10 21 C9.67 21 9.34 21 9 21 C8.95101562 20.28972656 8.90203125 19.57945312 8.8515625 18.84765625 C8.77679688 17.92855469 8.70203125 17.00945312 8.625 16.0625 C8.55539063 15.14597656 8.48578125 14.22945312 8.4140625 13.28515625 C8.20910156 12.15400391 8.20910156 12.15400391 8 11 C7.34 10.67 6.68 10.34 6 10 C6 9.01 6 8.02 6 7 C4.35 6.67 2.7 6.34 1 6 C0.67 4.02 0.34 2.04 0 0 Z " fill="#0E1705" transform="translate(118,211)"/>
<path d="M0 0 C3.3 0 6.6 0 10 0 C10 0.33 10 0.66 10 1 C7.03 1 4.06 1 1 1 C1 2.98 1 4.96 1 7 C1.99 6.67 2.98 6.34 4 6 C4 10.62 4 15.24 4 20 C3.01 19.67 2.02 19.34 1 19 C-0.15316726 12.65758005 -0.09507063 6.43311296 0 0 Z " fill="#0E0F03" transform="translate(228,231)"/>
<path d="M0 0 C1.53266582 3.06533164 1.10276471 6.26754272 1.0625 9.625 C1.05798828 10.33140625 1.05347656 11.0378125 1.04882812 11.765625 C1.03703875 13.51045275 1.01910324 15.255237 1 17 C1.33 12.38 1.66 7.76 2 3 C2.33 3 2.66 3 3 3 C3 9.6 3 16.2 3 23 C2.01 22.67 1.02 22.34 0 22 C0 24.64 0 27.28 0 30 C-0.33 30 -0.66 30 -1 30 C-1.02465746 25.8882744 -1.04283959 21.77657722 -1.05493164 17.66479492 C-1.0599708 16.26504772 -1.06680216 14.8653058 -1.07543945 13.46557617 C-1.0875232 11.45754223 -1.09269807 9.44947043 -1.09765625 7.44140625 C-1.10289307 6.23170166 -1.10812988 5.02199707 -1.11352539 3.77563477 C-1 1 -1 1 0 0 Z " fill="#1F3C12" transform="translate(205,218)"/>
<path d="M0 0 C3.96 0 7.92 0 12 0 C12.66 1.98 13.32 3.96 14 6 C8.06997733 6.37851209 3.52760359 5.10575375 -2 3 C-1.34 2.67 -0.68 2.34 0 2 C0 1.34 0 0.68 0 0 Z " fill="#0D1204" transform="translate(286,223)"/>
<path d="M0 0 C1 1 1 1 1.0625 3.5625 C1.041875 4.366875 1.02125 5.17125 1 6 C-0.62318979 6.36237263 -2.2486358 6.71465157 -3.875 7.0625 C-4.77992188 7.25972656 -5.68484375 7.45695312 -6.6171875 7.66015625 C-9 8 -9 8 -11 7 C-10.79375 6.38125 -10.5875 5.7625 -10.375 5.125 C-10.25125 4.42375 -10.1275 3.7225 -10 3 C-10.66 2.34 -11.32 1.68 -12 1 C-8.00681626 -0.33106125 -4.16255487 -0.13647721 0 0 Z M-8 3 C-8 3.66 -8 4.32 -8 5 C-5.69 5 -3.38 5 -1 5 C-1 4.34 -1 3.68 -1 3 C-3.31 3 -5.62 3 -8 3 Z " fill="#0C0804" transform="translate(240,271)"/>
<path d="M0 0 C2.95064148 -0.2208564 5.68368231 -0.28060989 8.625 -0.1875 C9.42679688 -0.17396484 10.22859375 -0.16042969 11.0546875 -0.14648438 C13.03674378 -0.11109051 15.01845551 -0.05728234 17 0 C17.33 1.98 17.66 3.96 18 6 C17.34 6 16.68 6 16 6 C15.67 4.68 15.34 3.36 15 2 C13.04196493 1.94610913 11.08351091 1.90725783 9.125 1.875 C8.03445312 1.85179687 6.94390625 1.82859375 5.8203125 1.8046875 C2.8628949 1.69939466 2.8628949 1.69939466 1 4 C0.95679753 6.33293334 0.95977609 8.6670134 1 11 C0.5 13.4375 0.5 13.4375 0 15 C-0.66 15 -1.32 15 -2 15 C-2.05406122 13.06280622 -2.09282025 11.12518079 -2.125 9.1875 C-2.14820313 8.10855469 -2.17140625 7.02960938 -2.1953125 5.91796875 C-2 3 -2 3 0 0 Z " fill="#C0EC81" transform="translate(211,274)"/>
<path d="M0 0 C2.97 0 5.94 0 9 0 C9 3.3 9 6.6 9 10 C4.38 10 -0.24 10 -5 10 C-4.67 9.01 -4.34 8.02 -4 7 C-3.67 7.66 -3.34 8.32 -3 9 C-2.46375 8.67 -1.9275 8.34 -1.375 8 C1.5391061 6.77300796 3.86867708 6.85766714 7 7 C6.67 5.35 6.34 3.7 6 2 C3.03 1.505 3.03 1.505 0 1 C0 0.67 0 0.34 0 0 Z " fill="#1F2F0E" transform="translate(234,270)"/>
<path d="M0 0 C3.375 -0.125 3.375 -0.125 7 0 C7.66 0.66 8.32 1.32 9 2 C11.91188245 2.37268887 11.91188245 2.37268887 15.3203125 2.4140625 C16.57714844 2.45273438 17.83398438 2.49140625 19.12890625 2.53125 C20.44761719 2.5621875 21.76632812 2.593125 23.125 2.625 C24.46486918 2.66318029 25.80471383 2.70223206 27.14453125 2.7421875 C30.42954619 2.8367203 33.71455138 2.92227156 37 3 C37 3.33 37 3.66 37 4 C32.42847075 4.02485982 27.85698153 4.04293526 23.28540039 4.05493164 C21.73265904 4.05993684 20.17992234 4.06674301 18.62719727 4.07543945 C16.38556768 4.08767307 14.14400082 4.09326657 11.90234375 4.09765625 C10.87378517 4.10539818 10.87378517 4.10539818 9.82444763 4.11329651 C5.43608179 4.1137986 1.31598155 3.70910669 -3 3 C-2.01 2.67 -1.02 2.34 0 2 C0 1.34 0 0.68 0 0 Z " fill="#243615" transform="translate(321,214)"/>
<path d="M0 0 C4.95 0 9.9 0 15 0 C15 2.31 15 4.62 15 7 C14.67 7 14.34 7 14 7 C14 5.02 14 3.04 14 1 C12.02 1 10.04 1 8 1 C8 1.66 8 2.32 8 3 C8.66 3.33 9.32 3.66 10 4 C6.37 4.33 2.74 4.66 -1 5 C-0.67 3.35 -0.34 1.7 0 0 Z " fill="#192B0D" transform="translate(329,232)"/>
<path d="M0 0 C-0.33 0.99 -0.66 1.98 -1 3 C-1.99 3 -2.98 3 -4 3 C-4 11.91 -4 20.82 -4 30 C-4.66 29.67 -5.32 29.34 -6 29 C-6.24870538 6.9757573 -6.24870538 6.9757573 -5 2 C-2 0 -2 0 0 0 Z " fill="#87C966" transform="translate(315,241)"/>
<path d="M0 0 C0.66 0.33 1.32 0.66 2 1 C1.34 4.3 0.68 7.6 0 11 C-1.32 11.33 -2.64 11.66 -4 12 C-4.33 12.66 -4.66 13.32 -5 14 C-4.34 9.71 -3.68 5.42 -3 1 C-2.01 0.67 -1.02 0.34 0 0 Z " fill="#100F08" transform="translate(288,250)"/>
<path d="M0 0 C0.66 0 1.32 0 2 0 C1.125 4.875 1.125 4.875 0 6 C-0.28528471 9.62266294 -0.44912228 13.24530434 -0.62109375 16.875 C-0.74613281 17.90625 -0.87117187 18.9375 -1 20 C-1.66 20.33 -2.32 20.66 -3 21 C-3.08132187 18.43685501 -3.14064175 15.87631582 -3.1875 13.3125 C-3.21263672 12.59126953 -3.23777344 11.87003906 -3.26367188 11.12695312 C-3.32614409 6.56648162 -2.91641976 3.58020538 0 0 Z " fill="#0B1100" transform="translate(208,215)"/>
<path d="M0 0 C2.4375 1.25 2.4375 1.25 5.4375 3.25 C7.09299531 3.63499891 8.7597433 3.97793135 10.4375 4.25 C10.4375 4.58 10.4375 4.91 10.4375 5.25 C5.53517343 6.25225343 2.51937817 6.84011537 -2 4.375 C-2.845625 3.67375 -3.69125 2.9725 -4.5625 2.25 C-5.2225 1.92 -5.8825 1.59 -6.5625 1.25 C-3.96941022 -0.47872652 -3.06126634 -0.89598039 0 0 Z " fill="#0C1B03" transform="translate(155.5625,270.75)"/>
<path d="M0 0 C-0.66 1.32 -1.32 2.64 -2 4 C-2.66 4 -3.32 4 -4 4 C-4.33 4.99 -4.66 5.98 -5 7 C-5.33 6.01 -5.66 5.02 -6 4 C-7.216875 4.020625 -8.43375 4.04125 -9.6875 4.0625 C-12.91977322 4.06824116 -15.84934741 3.78766315 -19 3 C-19 2.67 -19 2.34 -19 2 C-18.06027344 1.90912109 -18.06027344 1.90912109 -17.1015625 1.81640625 C-15.87566406 1.69072266 -15.87566406 1.69072266 -14.625 1.5625 C-13.81289062 1.48128906 -13.00078125 1.40007812 -12.1640625 1.31640625 C-2.84648494 -0.04591105 -2.84648494 -0.04591105 0 0 Z " fill="#161D07" transform="translate(234,270)"/>
<path d="M0 0 C0.33 0 0.66 0 1 0 C0.97679688 0.59425781 0.95359375 1.18851563 0.9296875 1.80078125 C0.78551273 8.4225223 1.62253274 14.53082341 3 21 C1.68 21 0.36 21 -1 21 C-1.84098656 16.98195309 -2.05404945 13.98196457 -1 10 C-1.66 9.67 -2.32 9.34 -3 9 C-2.34 9 -1.68 9 -1 9 C-0.67 6.03 -0.34 3.06 0 0 Z " fill="#120D0C" transform="translate(124,250)"/>
<path d="M0 0 C4.62 0 9.24 0 14 0 C14 2.64 14 5.28 14 8 C9.38 8 4.76 8 0 8 C0 5.36 0 2.72 0 0 Z M1 1 C1.33 2.65 1.66 4.3 2 6 C5.25303044 7.62651522 8.39225602 7.11453156 12 7 C12.33 6.67 12.66 6.34 13 6 C13 4.35 13 2.7 13 1 C9.04 1 5.08 1 1 1 Z " fill="#021600" transform="translate(330,251)"/>
<path d="M0 0 C1 3 1 3 0.0625 5.1875 C-0.288125 5.785625 -0.63875 6.38375 -1 7 C-7.7685324 7.10152799 -14.30324864 7.03026944 -21 6 C-21 5.67 -21 5.34 -21 5 C-19.81921875 4.97421875 -18.6384375 4.9484375 -17.421875 4.921875 C-15.86454677 4.86558603 -14.30725653 4.80823886 -12.75 4.75 C-11.97269531 4.73582031 -11.19539062 4.72164063 -10.39453125 4.70703125 C-5.53383509 4.50650929 -5.53383509 4.50650929 -1.453125 1.953125 C-0.73382813 0.98632812 -0.73382813 0.98632812 0 0 Z " fill="#B0D37E" transform="translate(263,295)"/>
<path d="M0 0 C0.66 0 1.32 0 2 0 C2 0.66 2 1.32 2 2 C2.99 2.33 3.98 2.66 5 3 C5.12375 3.763125 5.2475 4.52625 5.375 5.3125 C5.88102792 8.20267136 5.88102792 8.20267136 8 11 C9.98 10.67 11.96 10.34 14 10 C12.37660195 11.70884005 10.70680947 13.37446717 9 15 C8.34 15 7.68 15 7 15 C5.2734375 12.48046875 5.2734375 12.48046875 3.375 9.1875 C2.74335937 8.10855469 2.11171875 7.02960938 1.4609375 5.91796875 C0 3 0 3 0 0 Z " fill="#85C464" transform="translate(114,201)"/>
<path d="M0 0 C0.99 0.33 1.98 0.66 3 1 C2.34 9.58 1.68 18.16 1 27 C0.67 27 0.34 27 0 27 C0 18.09 0 9.18 0 0 Z " fill="#071601" transform="translate(205,240)"/>
<path d="M0 0 C-0.33 1.65 -0.66 3.3 -1 5 C-6.41538462 6.23076923 -6.41538462 6.23076923 -9.375 5.0625 C-9.91125 4.711875 -10.4475 4.36125 -11 4 C-4.5 0 -4.5 0 0 0 Z " fill="#070706" transform="translate(114,258)"/>
<path d="M0 0 C0.33 0 0.66 0 1 0 C1.33 2.31 1.66 4.62 2 7 C3.32 7 4.64 7 6 7 C6.66 6.34 7.32 5.68 8 5 C8.99 5.33 9.98 5.66 11 6 C10.01 6.33 9.02 6.66 8 7 C8 7.66 8 8.32 8 9 C9.98 9 11.96 9 14 9 C14 9.33 14 9.66 14 10 C9.38 10 4.76 10 0 10 C0 6.7 0 3.4 0 0 Z " fill="#2E3C16" transform="translate(228,243)"/>
<path d="M0 0 C0.33 0.66 0.66 1.32 1 2 C1.99 2.33 2.98 2.66 4 3 C-0.75 6.875 -0.75 6.875 -3 8 C-5.1640625 7.66015625 -5.1640625 7.66015625 -7.625 7.0625 C-8.44226563 6.86785156 -9.25953125 6.67320312 -10.1015625 6.47265625 C-11.04128906 6.23869141 -11.04128906 6.23869141 -12 6 C-12 5.67 -12 5.34 -12 5 C-10.7625 4.9175 -9.525 4.835 -8.25 4.75 C-5.01117036 4.36524541 -4.12092117 4.09975997 -1.5 1.9375 C-1.005 1.298125 -0.51 0.65875 0 0 Z " fill="#1B2009" transform="translate(262,291)"/>
<path d="M0 0 C0.66 0 1.32 0 2 0 C1.72285156 1.09699219 1.44570313 2.19398438 1.16015625 3.32421875 C0.79420763 4.77862993 0.42832573 6.2330579 0.0625 7.6875 C-0.11990234 8.40873047 -0.30230469 9.12996094 -0.49023438 9.87304688 C-1.41825907 13.56827248 -2.29798461 17.25345469 -3 21 C-3.33 21 -3.66 21 -4 21 C-4.18388216 15.66741736 -3.69438862 12.08316587 -2 7 C-2.28639786 4.22252318 -2.28639786 4.22252318 -3 2 C-2.01 2.33 -1.02 2.66 0 3 C0 2.01 0 1.02 0 0 Z " fill="#BAE777" transform="translate(277,242)"/>
<path d="M0 0 C0.33 0 0.66 0 1 0 C1.92220114 7.5313093 1.92220114 7.5313093 -0.265625 11.015625 C-1.30463953 12.17568976 -2.37894935 13.30549393 -3.4921875 14.39453125 C-5.12978816 16.13819413 -6.02862011 17.82618383 -7 20 C-7.08226668 16.95613276 -6.97608217 14.92824652 -6 12 C-5.01 11.34 -4.02 10.68 -3 10 C-1.98675674 7.59027402 -1.98675674 7.59027402 -1.3125 4.875 C-1.06113281 3.96492187 -0.80976563 3.05484375 -0.55078125 2.1171875 C-0.36902344 1.41851562 -0.18726563 0.71984375 0 0 Z " fill="#85CE61" transform="translate(209,204)"/>
<path d="M0 0 C2 2 2 2 2.125 4.625 C2.08375 5.40875 2.0425 6.1925 2 7 C1.01 6.67 0.02 6.34 -1 6 C-1 5.34 -1 4.68 -1 4 C-3.31 4 -5.62 4 -8 4 C-8.33 3.01 -8.66 2.02 -9 1 C-7.54364629 0.77825067 -6.08477044 0.57301302 -4.625 0.375 C-3.40683594 0.20097656 -3.40683594 0.20097656 -2.1640625 0.0234375 C-1.44992187 0.01570312 -0.73578125 0.00796875 0 0 Z " fill="#141606" transform="translate(265,209)"/>
<path d="M0 0 C0.99 0.33 1.98 0.66 3 1 C2.34 2.32 1.68 3.64 1 5 C0.34 5 -0.32 5 -1 5 C-1.33 5.99 -1.66 6.98 -2 8 C-3.98 8.33 -5.96 8.66 -8 9 C-8 7.68 -8 6.36 -8 5 C-4.535 4.505 -4.535 4.505 -1 4 C-0.67 2.68 -0.34 1.36 0 0 Z " fill="#0E0B08" transform="translate(307,221)"/>
<path d="M0 0 C0 0.33 0 0.66 0 1 C-1.86205078 1.03867188 -1.86205078 1.03867188 -3.76171875 1.078125 C-5.40368028 1.13442082 -7.045606 1.19176783 -8.6875 1.25 C-9.91243164 1.27126953 -9.91243164 1.27126953 -11.16210938 1.29296875 C-16.35046785 1.50302375 -19.19858665 2.12890697 -23 6 C-22.42655063 3.13275314 -22.1385485 2.1385485 -20 0 C-17.1598968 -0.33498653 -14.41209132 -0.55808008 -11.5625 -0.6875 C-10.39750977 -0.75807617 -10.39750977 -0.75807617 -9.20898438 -0.83007812 C-5.8346076 -1.00737096 -3.23298886 -1.07766295 0 0 Z " fill="#081B01" transform="translate(147,187)"/>
<path d="M0 0 C0 6.27 0 12.54 0 19 C-0.33 19 -0.66 19 -1 19 C-1.33 14.05 -1.66 9.1 -2 4 C-2.99 4 -3.98 4 -5 4 C-4.67 3.01 -4.34 2.02 -4 1 C-2 0 -2 0 0 0 Z " fill="#2D4D1C" transform="translate(128,213)"/>
<path d="M0 0 C3.3 0 6.6 0 10 0 C10.33 0.66 10.66 1.32 11 2 C10.04287109 2.07347656 10.04287109 2.07347656 9.06640625 2.1484375 C8.24011719 2.22320312 7.41382813 2.29796875 6.5625 2.375 C5.73878906 2.44460937 4.91507812 2.51421875 4.06640625 2.5859375 C3.04353516 2.79089844 3.04353516 2.79089844 2 3 C1.67 3.66 1.34 4.32 1 5 C0.67 3.35 0.34 1.7 0 0 Z " fill="#0F0906" transform="translate(310,214)"/>
<path d="M0 0 C0.33 0 0.66 0 1 0 C1 6.6 1 13.2 1 20 C0.01 19.67 -0.98 19.34 -2 19 C-1.84660156 18.32582031 -1.69320312 17.65164062 -1.53515625 16.95703125 C-0.91516143 13.53122048 -0.6647426 10.16106553 -0.4375 6.6875 C-0.35371094 5.43324219 -0.26992187 4.17898437 -0.18359375 2.88671875 C-0.12300781 1.93410156 -0.06242188 0.98148438 0 0 Z " fill="#2E3918" transform="translate(207,221)"/>
<path d="M0 0 C1.98 0 3.96 0 6 0 C5.67 0.66 5.34 1.32 5 2 C4.7724985 3.87056791 4.59037189 5.74685958 4.4375 7.625 C4.31181641 9.12933594 4.31181641 9.12933594 4.18359375 10.6640625 C4.12300781 11.43492187 4.06242187 12.20578125 4 13 C3.67 13 3.34 13 3 13 C3 10.03 3 7.06 3 4 C2.01 4.33 1.02 4.66 0 5 C0 3.35 0 1.7 0 0 Z " fill="#2A3C16" transform="translate(306,241)"/>
<path d="M0 0 C0 0.66 0 1.32 0 2 C-3.3 2.66 -6.6 3.32 -10 4 C-10 3.01 -10 2.02 -10 1 C-6.59437148 0.22157062 -3.49234244 -0.09978121 0 0 Z " fill="#000000" transform="translate(398,229)"/>
<path d="M0 0 C1.32 0 2.64 0 4 0 C4 1.65 4 3.3 4 5 C1.69 5 -0.62 5 -3 5 C-3.33 4.34 -3.66 3.68 -4 3 C-2.68 2.67 -1.36 2.34 0 2 C0 1.34 0 0.68 0 0 Z " fill="#0D0D04" transform="translate(337,233)"/>
<path d="M0 0 C1.1875 2.5625 1.1875 2.5625 2 5 C-0.31 5 -2.62 5 -5 5 C-4.34 4.34 -3.68 3.68 -3 3 C-3.99 2.01 -4.98 1.02 -6 0 C-3 -1 -3 -1 0 0 Z " fill="#292D23" transform="translate(298,224)"/>
<path d="M0 0 C0.68707555 2.49064888 1 4.37886292 1 7 C0.34 7 -0.32 7 -1 7 C-1.33 7.66 -1.66 8.32 -2 9 C-2.99 8.01 -3.98 7.02 -5 6 C-3.35 4.02 -1.7 2.04 0 0 Z " fill="#B6EC74" transform="translate(213,214)"/>
<path d="M0 0 C0.53625 0.680625 1.0725 1.36125 1.625 2.0625 C-0.92202616 3.33601308 -1.8032945 2.86441925 -4.5 2.125 C-5.22445313 1.93035156 -5.94890625 1.73570312 -6.6953125 1.53515625 C-7.24960937 1.37917969 -7.80390625 1.22320312 -8.375 1.0625 C-8.375 0.4025 -8.375 -0.2575 -8.375 -0.9375 C-2.95961538 -2.41442308 -2.95961538 -2.41442308 0 0 Z " fill="#090804" transform="translate(298.375,289.9375)"/>
<path d="M0 0 C2.29013653 3.4352048 2.17842973 4.985331 2 9 C1.01 9.33 0.02 9.66 -1 10 C-1.02689216 8.52093108 -1.04634621 7.04172517 -1.0625 5.5625 C-1.07410156 4.73878906 -1.08570313 3.91507812 -1.09765625 3.06640625 C-1 1 -1 1 0 0 Z " fill="#081300" transform="translate(306,261)"/>
<path d="M0 0 C0.33 0 0.66 0 1 0 C1.144375 1.093125 1.28875 2.18625 1.4375 3.3125 C1.88288104 6.93122987 1.88288104 6.93122987 3 10 C1.35 9.67 -0.3 9.34 -2 9 C-1.34 6.03 -0.68 3.06 0 0 Z " fill="#1E280E" transform="translate(278,244)"/>
<path d="M0 0 C1.47919922 0.06960937 1.47919922 0.06960937 2.98828125 0.140625 C3.98214844 0.17671875 4.97601563 0.2128125 6 0.25 C7.13888672 0.31960937 7.13888672 0.31960937 8.30078125 0.390625 C5.26613597 1.97531292 2.68377466 2.81304076 -0.69921875 3.390625 C-1.62734375 3.57625 -2.55546875 3.761875 -3.51171875 3.953125 C-4.23359375 4.0975 -4.95546875 4.241875 -5.69921875 4.390625 C-4.03190196 1.4998505 -3.38689549 0.49014407 0 0 Z " fill="#85CE63" transform="translate(130.69921875,188.609375)"/>
<path d="M0 0 C0.33 0 0.66 0 1 0 C1.16873478 1.43725871 1.33490737 2.87481838 1.5 4.3125 C1.5928125 5.11300781 1.685625 5.91351563 1.78125 6.73828125 C2 9 2 9 2 12 C1.34 12 0.68 12 0 12 C-0.66 9.69 -1.32 7.38 -2 5 C-1.34 5 -0.68 5 0 5 C0 3.35 0 1.7 0 0 Z " fill="#2A3A13" transform="translate(208,281)"/>
<path d="M0 0 C3.3 0.33 6.6 0.66 10 1 C9.67 1.99 9.34 2.98 9 4 C8.01 4 7.02 4 6 4 C6 3.34 6 2.68 6 2 C3.69 2 1.38 2 -1 2 C-0.67 1.34 -0.34 0.68 0 0 Z " fill="#160E11" transform="translate(354,214)"/>
<path d="M0 0 C0.66 0 1.32 0 2 0 C2.25 6.625 2.25 6.625 0 10 C-1 9 -1 9 -1.125 5.5625 C-1 2 -1 2 0 0 Z " fill="#1D1911" transform="translate(266,282)"/>
<path d="M0 0 C3.96 0.33 7.92 0.66 12 1 C12.33 1.99 12.66 2.98 13 4 C8.71 3.01 4.42 2.02 0 1 C0 0.67 0 0.34 0 0 Z " fill="#B1D973" transform="translate(279,283)"/>
<path d="M0 0 C0 0.99 0 1.98 0 3 C-2.35171131 2.40138258 -4.6859378 1.73075648 -7 1 C-7.33 0.34 -7.66 -0.32 -8 -1 C-4.37673261 -2.2077558 -3.35853631 -1.54311128 0 0 Z " fill="#B9E479" transform="translate(290,243)"/>
<path d="M0 0 C0 0.66 0 1.32 0 2 C-2.95664519 3.4783226 -5.74229737 3.06032783 -9 3 C-9 2.34 -9 1.68 -9 1 C-5.94152152 0.45627049 -3.11227195 0 0 0 Z " fill="#010101" transform="translate(377,220)"/>
<path d="M0 0 C4.27786748 0.49360009 7.09567131 1.04783565 11 3 C8.03 3 5.06 3 2 3 C2 2.34 2 1.68 2 1 C1.34 0.67 0.68 0.34 0 0 Z " fill="#121E04" transform="translate(279,284)"/>
<path d="M0 0 C-0.33 1.32 -0.66 2.64 -1 4 C-2.98 3.34 -4.96 2.68 -7 2 C-5.26578631 -1.46842738 -3.40984787 -1.13661596 0 0 Z " fill="#171712" transform="translate(156,271)"/>
<path d="M0 0 C0 0.99 0 1.98 0 3 C-2.31 3.33 -4.62 3.66 -7 4 C-6.67 3.01 -6.34 2.02 -6 1 C-3.90006779 0.25486277 -2.22568901 0 0 0 Z " fill="#142006" transform="translate(315,238)"/>
<path d="M0 0 C3.96 0 7.92 0 12 0 C11.34 1.32 10.68 2.64 10 4 C9.67 3.34 9.34 2.68 9 2 C6.87423218 1.53348793 6.87423218 1.53348793 4.4375 1.375 C3.61121094 1.30023438 2.78492188 1.22546875 1.93359375 1.1484375 C1.29550781 1.09945313 0.65742188 1.05046875 0 1 C0 0.67 0 0.34 0 0 Z " fill="#89CF6A" transform="translate(177,259)"/>
<path d="M0 0 C0.33 0 0.66 0 1 0 C0.67 2.64 0.34 5.28 0 8 C-0.99 7.67 -1.98 7.34 -3 7 C-1.125 2.25 -1.125 2.25 0 0 Z " fill="#19240A" transform="translate(288,253)"/>
<path d="M0 0 C1.65 0 3.3 0 5 0 C5 0.66 5 1.32 5 2 C5.66 2.33 6.32 2.66 7 3 C4.69 3 2.38 3 0 3 C0 2.01 0 1.02 0 0 Z " fill="#322A2C" transform="translate(332,233)"/>
<path d="M0 0 C4.875 4.625 4.875 4.625 6 8 C2.83884224 6.63016497 2.0072908 6.0109362 0 3 C0 2.01 0 1.02 0 0 Z " fill="#0A1D03" transform="translate(112,202)"/>
<path d="M0 0 C0 0.66 0 1.32 0 2 C-2.64 2.33 -5.28 2.66 -8 3 C-8 2.34 -8 1.68 -8 1 C-5.10765685 0.17361624 -3.11257569 0 0 0 Z " fill="#010101" transform="translate(300,212)"/>
<path d="M0 0 C1.98 0 3.96 0 6 0 C5.67 0.66 5.34 1.32 5 2 C3.35 2 1.7 2 0 2 C0 1.34 0 0.68 0 0 Z " fill="#020202" transform="translate(378,220)"/>
<path d="M0 0 C1.98 0 3.96 0 6 0 C4 2 4 2 1.375 2.125 C0.59125 2.08375 -0.1925 2.0425 -1 2 C-0.67 1.34 -0.34 0.68 0 0 Z " fill="#000100" transform="translate(284,214)"/>
<path d="M0 0 C1.98 0.495 1.98 0.495 4 1 C2.35 1.33 0.7 1.66 -1 2 C-0.67 1.34 -0.34 0.68 0 0 Z " fill="#030303" transform="translate(376,238)"/>
<path d="M0 0 C0 0.66 0 1.32 0 2 C-0.99 2.33 -1.98 2.66 -3 3 C-3.33 2.34 -3.66 1.68 -4 1 C-2 0 -2 0 0 0 Z " fill="#030100" transform="translate(305,211)"/>
<path d="M0 0 C0.99 0.33 1.98 0.66 3 1 C2.01 1.33 1.02 1.66 0 2 C0 1.34 0 0.68 0 0 Z " fill="#020101" transform="translate(271,212)"/>
<path d="M0 0 C0.66 0 1.32 0 2 0 C2 0.66 2 1.32 2 2 C1.34 2 0.68 2 0 2 C0 1.34 0 0.68 0 0 Z " fill="#010105" transform="translate(304,207)"/>
<path d="M0 0 C0.33 0.66 0.66 1.32 1 2 C0.34 1.67 -0.32 1.34 -1 1 C-0.67 0.67 -0.34 0.34 0 0 Z " fill="#030303" transform="translate(96,264)"/>
<path d="M0 0 C2 1 2 1 2 1 Z " fill="#000000" transform="translate(379,236)"/>
<path d="M0 0 C2 1 2 1 2 1 Z " fill="#000100" transform="translate(307,211)"/>
<path d="" fill="#000000" transform="translate(0,0)"/>
<path d="" fill="#000000" transform="translate(0,0)"/>
<path d="" fill="#000000" transform="translate(0,0)"/>
</svg>
